<svg width="1512" height="11587" viewBox="0 0 1512 11587" fill="none" xmlns="http://www.w3.org/2000/svg" xmlns:xlink="http://www.w3.org/1999/xlink">
<path d="M1512 11587H0V0H1512V11587Z" fill="#141131"/>
<path d="M1512 11587H0V0H1512V11587Z" fill="url(#pattern0_731_1556)" fill-opacity="0.2"/>
<defs>
<pattern id="pattern0_731_1556" patternUnits="userSpaceOnUse" patternTransform="matrix(-15.5152 0 0 -30.8503 1512 11587)" preserveAspectRatio="none" viewBox="0 0 119.348 237.31" width="1" height="1">
<use xlink:href="#pattern0_731_1556_inner" transform="translate(-119.348 0)"/>
<g id="pattern0_731_1556_inner">
<mask id="path-2-inside-1_731_1556" fill="white">
<path d="M23.1787 0C23.1854 3.01993 23.7837 6.00943 24.9395 8.7998C26.1018 11.6059 27.8054 14.156 29.9531 16.3037C32.1009 18.4514 34.6509 20.155 37.457 21.3174C40.2477 22.4733 43.2375 23.0706 46.2578 23.0771C46.2579 23.0944 46.2588 23.1116 46.2588 23.1289C46.2588 23.1458 46.2578 23.1628 46.2578 23.1797C43.2375 23.1862 40.2477 23.7845 37.457 24.9404C34.6509 26.1028 32.1009 27.8064 29.9531 29.9541C27.8054 32.1018 26.1018 34.6519 24.9395 37.458C23.8178 40.1659 23.222 43.0614 23.1816 45.9902C23.1244 43.0709 22.4267 40.044 21.3135 37.3564C20.1511 34.5503 18.4475 32.0003 16.2998 29.8525C14.1521 27.7048 11.602 26.0012 8.7959 24.8389C6.00677 23.6836 3.01856 23.0853 0 23.0781V23.0771C3.01895 23.0701 6.0074 22.4728 8.79688 21.3174C11.603 20.155 14.153 18.4514 16.3008 16.3037C18.4485 14.156 20.1521 11.6059 21.3145 8.7998C22.4702 6.00943 23.0676 3.01993 23.0742 0C23.0906 0 23.1623 -3.41448e-05 23.1787 0Z"/>
</mask>
<path d="M23.1787 0C23.1854 3.01993 23.7837 6.00943 24.9395 8.7998C26.1018 11.6059 27.8054 14.156 29.9531 16.3037C32.1009 18.4514 34.6509 20.155 37.457 21.3174C40.2477 22.4733 43.2375 23.0706 46.2578 23.0771C46.2579 23.0944 46.2588 23.1116 46.2588 23.1289C46.2588 23.1458 46.2578 23.1628 46.2578 23.1797C43.2375 23.1862 40.2477 23.7845 37.457 24.9404C34.6509 26.1028 32.1009 27.8064 29.9531 29.9541C27.8054 32.1018 26.1018 34.6519 24.9395 37.458C23.8178 40.1659 23.222 43.0614 23.1816 45.9902C23.1244 43.0709 22.4267 40.044 21.3135 37.3564C20.1511 34.5503 18.4475 32.0003 16.2998 29.8525C14.1521 27.7048 11.602 26.0012 8.7959 24.8389C6.00677 23.6836 3.01856 23.0853 0 23.0781V23.0771C3.01895 23.0701 6.0074 22.4728 8.79688 21.3174C11.603 20.155 14.153 18.4514 16.3008 16.3037C18.4485 14.156 20.1521 11.6059 21.3145 8.7998C22.4702 6.00943 23.0676 3.01993 23.0742 0C23.0906 0 23.1623 -3.41448e-05 23.1787 0Z" fill="white"/>
<path d="M23.1787 0L24.1787 -0.0022014L24.1765 -0.997924L23.1808 -0.999998L23.1787 0ZM24.9395 8.7998L24.0156 9.18247L24.0156 9.18249L24.9395 8.7998ZM29.9531 16.3037L29.246 17.0108L29.246 17.0108L29.9531 16.3037ZM37.457 21.3174L37.0743 22.2413L37.0744 22.2413L37.457 21.3174ZM46.2578 23.0771L47.2578 23.0749L47.2556 22.0793L46.26 22.0772L46.2578 23.0771ZM46.2588 23.1289H47.2588V23.1289L46.2588 23.1289ZM46.2578 23.1797L46.26 24.1797L47.2557 24.1775L47.2578 23.1818L46.2578 23.1797ZM37.457 24.9404L37.0744 24.0165L37.0743 24.0166L37.457 24.9404ZM29.9531 29.9541L29.246 29.247L29.246 29.247L29.9531 29.9541ZM24.9395 37.458L24.0156 37.0753L24.0156 37.0753L24.9395 37.458ZM23.1816 45.9902L22.1818 46.0098L24.1815 46.004L23.1816 45.9902ZM21.3135 37.3564L22.2374 36.9738L22.2374 36.9738L21.3135 37.3564ZM16.2998 29.8525L17.0069 29.1454V29.1454L16.2998 29.8525ZM8.7959 24.8389L9.17858 23.915L9.17858 23.915L8.7959 24.8389ZM0 23.0781H-1V24.0757L-0.00238704 24.0781L0 23.0781ZM0 23.0771L-0.00233556 22.0772L-1 22.0795V23.0771H0ZM8.79688 21.3174L9.17955 22.2413L9.17956 22.2413L8.79688 21.3174ZM16.3008 16.3037L17.0079 17.0108L17.0079 17.0108L16.3008 16.3037ZM21.3145 8.7998L22.2383 9.18249L22.2383 9.18247L21.3145 8.7998ZM23.0742 0V-1H22.0764L22.0742 -0.0022015L23.0742 0ZM23.1787 0L22.1787 0.0022014C22.1856 3.15277 22.8099 6.27153 24.0156 9.18247L24.9395 8.7998L25.8633 8.41714C24.7575 5.74734 24.1851 2.88708 24.1787 -0.0022014L23.1787 0ZM24.9395 8.7998L24.0156 9.18249C25.2281 12.1099 27.0054 14.7702 29.246 17.0108L29.9531 16.3037L30.6602 15.5966C28.6054 13.5418 26.9754 11.102 25.8633 8.41712L24.9395 8.7998ZM29.9531 16.3037L29.246 17.0108C31.4866 19.2514 34.1469 21.0287 37.0743 22.2413L37.457 21.3174L37.8397 20.3935C35.1548 19.2814 32.7151 17.6514 30.6602 15.5966L29.9531 16.3037ZM37.457 21.3174L37.0744 22.2413C39.9858 23.4472 43.1049 24.0703 46.2556 24.0771L46.2578 23.0771L46.26 22.0772C43.3701 22.0709 40.5096 21.4994 37.8397 20.3935L37.457 21.3174ZM46.2578 23.0771L45.2578 23.0793C45.2578 23.0922 45.258 23.1033 45.2582 23.1117C45.2584 23.1197 45.2586 23.1272 45.2587 23.1308C45.2588 23.1329 45.2588 23.1342 45.2588 23.1353C45.2589 23.1363 45.2589 23.1366 45.2589 23.1365C45.2589 23.1364 45.2588 23.1335 45.2588 23.1289L46.2588 23.1289L47.2588 23.1289C47.2588 23.1157 47.2586 23.1042 47.2584 23.0954C47.2583 23.087 47.258 23.0793 47.2579 23.0753C47.2578 23.0702 47.2578 23.0691 47.2577 23.0685C47.2577 23.0682 47.2578 23.0707 47.2578 23.0749L46.2578 23.0771ZM46.2588 23.1289H45.2588C45.2588 23.124 45.2589 23.1209 45.2589 23.1206C45.2589 23.1205 45.2589 23.1207 45.2588 23.1217C45.2588 23.1227 45.2588 23.1239 45.2587 23.1261C45.2586 23.1295 45.2584 23.1371 45.2582 23.145C45.258 23.1534 45.2578 23.1646 45.2578 23.1775L46.2578 23.1797L47.2578 23.1818C47.2578 23.1842 47.2578 23.186 47.2578 23.1872C47.2578 23.1883 47.2577 23.189 47.2577 23.189C47.2577 23.1891 47.2577 23.1889 47.2577 23.1887C47.2578 23.1884 47.2578 23.188 47.2578 23.1875C47.2578 23.1862 47.2578 23.1849 47.2579 23.1825C47.258 23.1786 47.2582 23.1709 47.2584 23.1625C47.2586 23.1538 47.2588 23.1422 47.2588 23.1289H46.2588ZM46.2578 23.1797L46.2556 22.1797C43.1047 22.1865 39.9856 22.8107 37.0744 24.0165L37.457 24.9404L37.8397 25.8643C40.5098 24.7583 43.3703 24.1859 46.26 24.1797L46.2578 23.1797ZM37.457 24.9404L37.0743 24.0166C34.1469 25.2291 31.4866 27.0064 29.246 29.247L29.9531 29.9541L30.6602 30.6612C32.7151 28.6064 35.1548 26.9764 37.8397 25.8643L37.457 24.9404ZM29.9531 29.9541L29.246 29.247C27.0054 31.4876 25.2281 34.1479 24.0156 37.0753L24.9395 37.458L25.8633 37.8407C26.9754 35.1559 28.6054 32.716 30.6602 30.6612L29.9531 29.9541ZM24.9395 37.458L24.0156 37.0753C22.8454 39.9004 22.2238 42.9211 22.1817 45.9765L23.1816 45.9902L24.1815 46.004C24.2201 43.2017 24.7903 40.4314 25.8633 37.8407L24.9395 37.458ZM23.1816 45.9902L24.1814 45.9706C24.1215 42.9128 23.3927 39.7631 22.2374 36.9738L21.3135 37.3564L20.3896 37.7391C21.4607 40.3249 22.1274 43.229 22.1818 46.0098L23.1816 45.9902ZM21.3135 37.3564L22.2374 36.9738C21.0248 34.0463 19.2475 31.3861 17.0069 29.1454L16.2998 29.8525L15.5927 30.5596C17.6475 32.6145 19.2775 35.0543 20.3896 37.7391L21.3135 37.3564ZM16.2998 29.8525L17.0069 29.1454C14.7663 26.9048 12.106 25.1276 9.17858 23.915L8.7959 24.8389L8.41321 25.7627C11.0981 26.8749 13.5379 28.5048 15.5927 30.5596L16.2998 29.8525ZM8.7959 24.8389L9.17858 23.915C6.26891 22.7098 3.15151 22.0856 0.00238704 22.0781L0 23.0781L-0.00238704 24.0781C2.88562 24.085 5.74463 24.6574 8.41322 25.7627L8.7959 24.8389ZM0 23.0781H1V23.0771H0H-1V23.0781H0ZM0 23.0771L0.00233556 24.0771C3.15165 24.0698 6.26933 23.4467 9.17955 22.2413L8.79688 21.3174L8.4142 20.3935C5.74547 21.4989 2.88624 22.0704 -0.00233556 22.0772L0 23.0771ZM8.79688 21.3174L9.17956 22.2413C12.107 21.0287 14.7673 19.2514 17.0079 17.0108L16.3008 16.3037L15.5937 15.5966C13.5388 17.6514 11.0991 19.2814 8.41419 20.3935L8.79688 21.3174ZM16.3008 16.3037L17.0079 17.0108C19.2485 14.7702 21.0258 12.1099 22.2383 9.18249L21.3145 8.7998L20.3906 8.41712C19.2785 11.102 17.6485 13.5418 15.5937 15.5966L16.3008 16.3037ZM21.3145 8.7998L22.2383 9.18247C23.4441 6.27133 24.0673 3.15256 24.0742 0.0022015L23.0742 0L22.0742 -0.0022015C22.0679 2.8873 21.4963 5.74753 20.3906 8.41714L21.3145 8.7998ZM23.0742 0V1C23.0926 1 23.1616 0.999967 23.1766 0.999998L23.1787 0L23.1808 -0.999998C23.163 -1.00003 23.0887 -1 23.0742 -1V0Z" fill="#D2CDCD" mask="url(#path-2-inside-1_731_1556)"/>
</g>
<use xlink:href="#pattern0_731_1556_inner" transform="translate(-59.6738 118.655)"/>
<use xlink:href="#pattern0_731_1556_inner" transform="translate(59.6738 118.655)"/>
</pattern></defs>
</svg>
