<svg width="13" height="18" viewBox="0 0 13 18" fill="none" xmlns="http://www.w3.org/2000/svg">
<path d="M5.21686 7.2068C5.26892 7.57367 5.44943 7.91019 5.72627 8.15649C5.86385 8.2609 6.02067 8.33714 6.18775 8.38087C6.35483 8.4246 6.52889 8.43496 6.69997 8.41134C7.11663 8.37912 7.53089 8.32115 7.94039 8.23778C8.44912 8.14844 8.92484 7.92507 9.3185 7.59067C9.53458 7.4102 9.6989 7.17564 9.7947 6.91091C9.89049 6.64618 9.91433 6.36078 9.86378 6.08383C9.67807 4.96954 8.98901 4.2235 8.02428 3.7083C7.49982 3.43375 6.91429 3.2967 6.32247 3.30996C5.55597 3.30378 4.80752 3.54253 4.18619 3.99142C3.56486 4.44032 3.10311 5.07589 2.86823 5.80555C2.72227 6.28922 2.67725 6.79773 2.73597 7.29952C2.79469 7.80132 2.95589 8.28569 3.20957 8.7226C3.4462 9.15391 3.73692 9.55543 3.99756 9.97488C4.25508 10.3516 4.39767 10.795 4.40804 11.2512C4.42771 11.4288 4.5094 11.5937 4.63872 11.717C4.76804 11.8403 4.93671 11.914 5.11503 11.9252H7.52672C7.7006 11.9243 7.86899 11.8642 8.00409 11.7548C8.1392 11.6453 8.23295 11.4931 8.26987 11.3232C8.27277 11.3053 8.27884 11.2841 8.28173 11.2572H8.78797C8.78362 11.4188 8.746 11.5777 8.67746 11.724C8.60892 11.8703 8.51094 12.001 8.38963 12.1077C8.32946 12.1679 8.26061 12.2156 8.19495 12.2726C8.05732 12.3893 7.88092 12.4502 7.70058 12.4433C6.76275 12.4343 5.82202 12.4404 4.88419 12.4372C4.79219 12.4339 4.70258 12.4071 4.62384 12.3594C4.32306 12.1944 4.08815 11.931 3.95851 11.6133C3.9217 11.521 3.90039 11.4233 3.89544 11.3241C3.88314 10.8871 3.73434 10.465 3.46992 10.1169C3.07648 9.60103 2.74944 9.03773 2.49651 8.44027C2.0652 7.22994 2.04726 6.02569 2.69726 4.89028C3.02232 4.29963 3.49068 3.8002 4.05925 3.43792C4.62782 3.07563 5.27836 2.86213 5.95104 2.81704C6.51051 2.75366 7.07704 2.80634 7.61523 2.97179C8.15342 3.13723 8.65172 3.41189 9.07898 3.77859C9.75557 4.31265 10.2171 5.0726 10.379 5.91923C10.4375 6.23178 10.4288 6.55321 10.3533 6.86211C10.2779 7.17101 10.1376 7.4603 9.9416 7.71072C9.51215 8.25276 8.96091 8.68586 8.33265 8.97485C7.849 9.24701 7.31066 9.40771 6.75696 9.44521C6.21981 9.4805 5.68065 9.47082 5.14512 9.41629C4.74887 9.35044 4.38786 9.14882 4.12397 8.84598C3.86009 8.54315 3.70975 8.15795 3.69874 7.75642C3.64352 7.08604 3.77293 6.41333 4.07294 5.81128C4.37294 5.20923 4.83208 4.70083 5.40055 4.34123C5.63474 4.17312 5.90091 4.05482 6.18262 3.99362C6.46433 3.93242 6.75559 3.92963 7.03842 3.98542C7.2088 4.00397 7.37228 4.06295 7.51525 4.15745C7.65822 4.25195 7.77654 4.37924 7.86037 4.52872C7.94419 4.67821 7.99109 4.84555 7.99716 5.01682C8.00323 5.18809 7.96829 5.35834 7.89526 5.51338C7.70644 5.95621 7.35417 6.30921 6.91172 6.49894C6.43529 6.73557 5.93513 6.91839 5.44365 7.12493C5.36957 7.15626 5.29386 7.18359 5.21686 7.2068ZM5.15698 6.72139C5.43313 6.66416 5.69735 6.55975 5.93802 6.41274C6.20231 6.27845 6.42019 6.06791 6.56347 5.80838C6.70674 5.54886 6.76881 5.2523 6.74163 4.9571C6.74936 4.86857 6.73037 4.77976 6.68711 4.70213C6.64384 4.62451 6.5783 4.56164 6.49894 4.52165C6.41958 4.48166 6.33005 4.46638 6.24192 4.47779C6.15379 4.48921 6.07111 4.52678 6.00455 4.58567C5.95316 4.61658 5.90583 4.6538 5.86368 4.69646C5.30682 5.25361 5.1778 5.9606 5.15698 6.72139Z" fill="#FEFBF1"/>
<path d="M4.55661 13.2939C4.52791 13.3085 4.49633 13.3166 4.46415 13.3175C4.43196 13.3185 4.39997 13.3123 4.37046 13.2994C4.34096 13.2865 4.31467 13.2672 4.29349 13.243C4.27231 13.2187 4.25676 13.1901 4.24796 13.1591C4.16256 13.039 4.03338 12.9572 3.88827 12.9314C3.74315 12.9056 3.5937 12.9378 3.47212 13.0211C3.10647 13.2939 3.15391 14.0189 3.38533 14.265C3.44918 14.3282 3.5278 14.3744 3.61404 14.3995C3.70028 14.4246 3.79143 14.4278 3.87921 14.4088C3.96698 14.3897 4.04861 14.349 4.1167 14.2905C4.18478 14.2319 4.23715 14.1572 4.26907 14.0732C4.32895 13.8997 4.42499 13.8815 4.57165 13.9205C4.5665 14.1025 4.49624 14.2767 4.37363 14.4114C4.25102 14.546 4.08419 14.6323 3.90343 14.6544C3.0975 14.7293 2.89385 14.0851 2.91786 13.576C2.92124 13.5165 2.92927 13.4574 2.94187 13.3992C2.95961 13.2492 3.01897 13.1071 3.11323 12.989C3.20749 12.8709 3.33291 12.7815 3.4753 12.731C3.62125 12.6698 3.78124 12.6501 3.93769 12.6738C4.09415 12.6976 4.24103 12.764 4.36222 12.8658C4.4234 12.9191 4.47243 12.9849 4.50596 13.0587C4.5395 13.1326 4.55678 13.2128 4.55661 13.2939Z" fill="#FEFBF1"/>
<path d="M6.40285 12.759H7.49342C7.66439 12.759 7.7422 12.8249 7.74828 12.9615C7.75108 12.9929 7.74681 13.0245 7.73577 13.054C7.72474 13.0835 7.70723 13.1102 7.68453 13.1321C7.66183 13.154 7.63452 13.1705 7.6046 13.1804C7.57468 13.1903 7.54292 13.1934 7.51165 13.1894C7.1191 13.1984 6.72366 13.1955 6.33111 13.1955C5.97154 13.1955 5.61516 13.1923 5.25559 13.1894C5.14479 13.1894 5.04875 13.1385 5.04297 13.0216C5.04364 12.9411 5.07101 12.8631 5.12078 12.7998C5.14769 12.7639 5.22868 12.7578 5.28567 12.7578L6.40285 12.759Z" fill="#FEFBF1"/>
<path d="M2.19229 3.71102C2.1894 3.88169 2.1084 4.00029 1.96752 4.00752C1.8454 4.01576 1.7231 3.99422 1.61114 3.94475C1.38398 3.8311 1.16296 3.70557 0.948986 3.56869C0.868855 3.51158 0.800658 3.43935 0.748229 3.35608C0.709752 3.31182 0.689841 3.25441 0.692643 3.19583C0.695445 3.13726 0.720746 3.08202 0.763271 3.04163C0.852839 2.97831 0.956888 2.93852 1.06585 2.92592C1.13626 2.92387 1.20551 2.94412 1.26372 2.98378C1.50642 3.11858 1.74912 3.25628 1.98864 3.40323C2.04582 3.43316 2.09448 3.47709 2.13009 3.53091C2.1657 3.58473 2.1871 3.64669 2.19229 3.71102Z" fill="#FEFBF1"/>
<path d="M10.5582 4.05932C10.4682 3.99944 10.3363 3.9575 10.3036 3.87361C10.2851 3.76144 10.2932 3.6465 10.3273 3.53805C10.3308 3.52333 10.3374 3.50955 10.3468 3.49766C10.3561 3.48578 10.3679 3.47606 10.3814 3.4692C10.7051 3.28638 11.0225 3.09459 11.3551 2.93288C11.4183 2.90536 11.4895 2.90274 11.5546 2.92554C11.6196 2.94834 11.6736 2.99488 11.7057 3.05583C11.7434 3.11026 11.7605 3.17633 11.7539 3.24221C11.7473 3.30808 11.7175 3.36947 11.6699 3.4154C11.3765 3.68321 11.0322 3.88904 10.6574 4.02056C10.6328 4.0258 10.6076 4.02785 10.5825 4.02664C10.5721 4.03564 10.5638 4.0468 10.5582 4.05932Z" fill="#FEFBF1"/>
<path d="M8.43262 1.8502C8.44825 1.77288 8.4723 1.69751 8.50436 1.62543C8.63019 1.39401 8.7647 1.17011 8.8969 0.939271C8.90298 0.930303 8.90587 0.921335 8.91195 0.912367C8.9575 0.834694 9.02942 0.775946 9.11462 0.746803C9.19982 0.717659 9.29265 0.720056 9.37623 0.753556C9.41282 0.775584 9.44471 0.804605 9.47008 0.83896C9.49545 0.873315 9.5138 0.912332 9.52409 0.953782C9.53438 0.995231 9.5364 1.0383 9.53004 1.08053C9.52368 1.12276 9.50907 1.16333 9.48703 1.19991C9.35132 1.4816 9.19406 1.7524 9.01666 2.00988C8.99091 2.05607 8.95379 2.09491 8.90881 2.12272C8.86384 2.15053 8.8125 2.1664 8.75968 2.1688C8.70685 2.17121 8.65429 2.16007 8.60697 2.13646C8.55966 2.11285 8.51916 2.07755 8.48931 2.03389C8.46334 1.97507 8.44431 1.91343 8.43262 1.8502Z" fill="#FEFBF1"/>
<path d="M3.74931 2.16327C3.67385 2.16759 3.59877 2.14977 3.5333 2.112C3.46782 2.07423 3.41481 2.01815 3.38078 1.95066C3.24597 1.72907 3.12043 1.50431 2.9943 1.27665C2.9699 1.23385 2.9527 1.18733 2.94339 1.13895C2.91957 1.06964 2.91993 0.994306 2.94441 0.925226C2.96889 0.856146 3.01605 0.797396 3.07819 0.758553C3.14614 0.724189 3.22421 0.715569 3.29802 0.734285C3.37182 0.753001 3.43636 0.797789 3.47971 0.860377C3.61513 1.05106 3.73823 1.25019 3.84825 1.45658C3.91299 1.56734 3.96528 1.68492 4.00417 1.80718C4.01723 1.8477 4.02062 1.89071 4.01407 1.93278C4.00751 1.97484 3.99119 2.01478 3.96641 2.0494C3.94164 2.08402 3.90909 2.11236 3.87139 2.13213C3.83369 2.15191 3.79188 2.16257 3.74931 2.16327Z" fill="#FEFBF1"/>
<path d="M6.37232 13.8845H5.63698C5.4721 13.8845 5.40036 13.8243 5.39428 13.6898C5.38827 13.6586 5.38968 13.6265 5.3984 13.5959C5.40712 13.5654 5.42291 13.5373 5.44448 13.514C5.46605 13.4907 5.4928 13.4728 5.52257 13.4617C5.55235 13.4507 5.5843 13.4467 5.61587 13.4503C6.12817 13.4442 6.64337 13.4442 7.15886 13.4474C7.21925 13.4501 7.27658 13.4747 7.32014 13.5166C7.3637 13.5585 7.39048 13.6149 7.39549 13.6751C7.39315 13.7063 7.38441 13.7368 7.36984 13.7645C7.35526 13.7922 7.33516 13.8167 7.31075 13.8363C7.28635 13.856 7.25818 13.8704 7.22797 13.8788C7.19777 13.8871 7.16617 13.8892 7.13514 13.8848L6.37232 13.8845Z" fill="#FEFBF1"/>
<path d="M11.7322 5.93482C11.858 5.93482 11.9807 5.93193 12.1065 5.93482C12.1892 5.92989 12.271 5.9551 12.3365 6.00579C12.4021 6.05647 12.4471 6.1292 12.4632 6.2105C12.4651 6.24856 12.4592 6.2866 12.4458 6.3223C12.4325 6.35799 12.412 6.39059 12.3856 6.41808C12.3592 6.44557 12.3275 6.46739 12.2924 6.48218C12.2573 6.49698 12.2195 6.50444 12.1814 6.50412C11.8802 6.52755 11.5775 6.52552 11.2766 6.49804C11.2397 6.49665 11.2036 6.48756 11.1705 6.47135C11.1374 6.45515 11.108 6.4322 11.0843 6.40397C11.0606 6.37574 11.0431 6.34286 11.0328 6.30745C11.0226 6.27204 11.0199 6.23488 11.0249 6.19835C11.0404 6.12469 11.0802 6.05836 11.1379 6.01C11.1956 5.96164 11.2679 5.93404 11.3431 5.93164C11.4744 5.93164 11.6034 5.93482 11.7322 5.93482Z" fill="#FEFBF1"/>
<path d="M0.721053 5.93509C0.840813 5.93509 0.960861 5.9322 1.08062 5.93509C1.16357 5.93291 1.24466 5.95987 1.30978 6.0113C1.37489 6.06273 1.41992 6.13536 1.43701 6.21656C1.43655 6.29268 1.40611 6.36555 1.35229 6.41938C1.29846 6.4732 1.22559 6.50364 1.14947 6.5041C0.853187 6.52604 0.555614 6.52401 0.259658 6.49802C0.221644 6.49914 0.183871 6.49165 0.149162 6.47611C0.114453 6.46057 0.0837071 6.43738 0.0592245 6.40828C0.0347419 6.37917 0.0171551 6.34491 0.00778156 6.30806C-0.00159198 6.2712 -0.00250927 6.2327 0.00509564 6.19544C0.0139347 6.12285 0.049565 6.05619 0.105004 6.00851C0.160444 5.96083 0.231692 5.93557 0.304784 5.9377C0.439587 5.92873 0.580465 5.9377 0.721342 5.9348L0.721053 5.93509Z" fill="#FEFBF1"/>
<path d="M5.91992 0.64452C5.93496 0.528809 5.94393 0.34801 5.9798 0.177048C5.99247 0.120145 6.02662 0.0703316 6.07513 0.0379943C6.12363 0.00565697 6.18275 -0.00670683 6.24015 0.00348342C6.29779 0.00381051 6.35366 0.0234938 6.39877 0.0593757C6.44388 0.0952576 6.47564 0.145257 6.48893 0.201348C6.50942 0.257107 6.5215 0.3156 6.5248 0.374913C6.52191 0.641625 6.52191 0.91123 6.4979 1.17794C6.49234 1.24618 6.46172 1.30995 6.41194 1.35696C6.36216 1.40396 6.29674 1.43087 6.22829 1.43251C6.16016 1.43047 6.09505 1.40388 6.04498 1.35763C5.9949 1.31138 5.96323 1.24859 5.95579 1.18084C5.934 1.00286 5.92202 0.823815 5.91992 0.64452Z" fill="#FEFBF1"/>
<path d="M9.73492 14.3836H10.6638C10.6667 14.4554 10.6699 14.5155 10.6759 14.5933H9.47949V12.748H9.73405L9.73492 14.3836Z" fill="#FEFBF1"/>
<path d="M9.22581 14.3782V14.5968H8.04238C8.0349 14.5663 8.02987 14.5353 8.02734 14.504V12.8592C8.02734 12.6405 8.18905 12.7724 8.29406 12.7304V14.3793L9.22581 14.3782Z" fill="#FEFBF1"/>
<path d="M7.13771 16.6924C7.19151 16.4705 7.24561 16.2518 7.2997 16.0302C7.33239 15.8983 7.33557 15.8983 7.50017 15.9313C7.47124 16.0421 7.44231 16.15 7.41628 16.2576C7.35842 16.4734 7.30838 16.6915 7.24561 16.9047C7.23346 16.9495 7.17358 17.0126 7.13771 17.0097C7.10942 17.0049 7.08268 16.9935 7.05973 16.9763C7.03678 16.959 7.01829 16.9366 7.0058 16.9108C6.94302 16.7279 6.8979 16.5393 6.84409 16.3536C6.83223 16.3056 6.81112 16.2608 6.78421 16.1801C6.71218 16.4404 6.6523 16.6655 6.58635 16.8899C6.56841 16.9559 6.55944 17.0218 6.45762 17.0218C6.35579 17.0218 6.34972 16.953 6.33179 16.8899C6.2479 16.5717 6.1669 16.2579 6.08301 15.9353C6.20277 15.8775 6.26872 15.9084 6.29273 16.0374C6.33757 16.2561 6.38848 16.4714 6.43737 16.6874C6.44923 16.6874 6.46427 16.6903 6.47642 16.6903C6.5363 16.4688 6.59618 16.2472 6.66214 16.0285C6.674 15.9865 6.70119 15.9238 6.73417 15.9145C6.81198 15.8934 6.88691 15.8966 6.91381 16.0076C6.96761 16.2391 7.03675 16.463 7.09663 16.6903C7.11023 16.6923 7.12398 16.693 7.13771 16.6924Z" fill="#FEFBF1"/>
<path d="M6.3667 14.5264C6.19313 14.5264 6.01957 14.5296 5.846 14.5264C5.81619 14.5284 5.78628 14.5243 5.75808 14.5144C5.72987 14.5046 5.70395 14.4891 5.68186 14.469C5.65977 14.4489 5.64196 14.4245 5.62951 14.3973C5.61705 14.3702 5.61021 14.3408 5.60938 14.3109C5.61303 14.2505 5.63949 14.1936 5.68341 14.1519C5.72733 14.1102 5.78543 14.0867 5.846 14.0862C6.20847 14.0833 6.57411 14.0833 6.93657 14.0862C6.96661 14.0851 6.99654 14.0903 7.02447 14.1014C7.0524 14.1126 7.07773 14.1293 7.09885 14.1507C7.11997 14.1721 7.13642 14.1977 7.14718 14.2257C7.15793 14.2538 7.16276 14.2838 7.16134 14.3138C7.16011 14.3437 7.15286 14.3731 7.14003 14.4001C7.1272 14.4271 7.10904 14.4513 7.08665 14.4711C7.06426 14.491 7.0381 14.5061 7.00973 14.5156C6.98135 14.5251 6.95136 14.5288 6.92153 14.5264H6.3667Z" fill="#FEFBF1"/>
<path d="M4.79099 16.2653C4.72959 16.2377 4.67372 16.1992 4.6261 16.1516C4.59587 16.1123 4.55741 16.08 4.5134 16.057C4.4694 16.034 4.42091 16.021 4.37133 16.0187C4.32175 16.0164 4.27227 16.025 4.22634 16.0438C4.1804 16.0626 4.13913 16.0912 4.1054 16.1276C4.03635 16.2197 3.99683 16.3305 3.99202 16.4455C3.98722 16.5605 4.01737 16.6743 4.0785 16.7718C4.1235 16.829 4.18509 16.8708 4.25481 16.8915C4.32454 16.9122 4.39896 16.9108 4.46787 16.8875C4.53409 16.8732 4.59211 16.8336 4.62959 16.7771C4.66708 16.7207 4.68108 16.6519 4.66862 16.5852C4.35042 16.5251 4.35042 16.5251 4.35997 16.4204C4.49188 16.4204 4.62668 16.4143 4.75859 16.4235C4.77922 16.4292 4.79818 16.4397 4.81384 16.4543C4.82951 16.4688 4.84142 16.487 4.84855 16.5071C4.85752 16.672 4.85145 16.8337 4.85145 17.0345C4.77653 16.9986 4.72272 16.9714 4.67181 16.9477C4.60987 16.9953 4.53816 17.0287 4.46182 17.0454C4.38548 17.062 4.30639 17.0616 4.23023 17.0442C4.15407 17.0267 4.08272 16.9926 4.02128 16.9443C3.95984 16.896 3.90984 16.8348 3.87485 16.7649C3.83571 16.69 3.81193 16.608 3.80492 16.5237C3.79791 16.4395 3.80781 16.3547 3.83403 16.2743C3.86025 16.194 3.90227 16.1197 3.95761 16.0558C4.01296 15.9919 4.08052 15.9397 4.15632 15.9023C4.21976 15.8726 4.28899 15.8572 4.35905 15.8574C4.42911 15.8576 4.49826 15.8733 4.56154 15.9033C4.62483 15.9334 4.68068 15.9771 4.7251 16.0313C4.76952 16.0854 4.80141 16.1488 4.81847 16.2167C4.81049 16.2335 4.8013 16.2498 4.79099 16.2653Z" fill="#FEFBF1"/>
<path d="M9.52512 17.0115H9.35734C9.35734 16.8828 9.35445 16.7569 9.35734 16.634C9.36342 16.5351 9.32147 16.4963 9.22572 16.5082H9.21068C8.81206 16.4992 8.81495 16.4992 8.8002 16.8946C8.7973 16.9366 8.74928 16.9785 8.72238 17.0205C8.69345 16.9817 8.63849 16.9398 8.63849 16.9007C8.63242 16.577 8.6356 16.2536 8.6356 15.936C8.75536 15.8911 8.80338 15.912 8.80627 16.0288C8.82131 16.3644 8.82421 16.3644 9.15977 16.3644H9.35763C9.35763 16.2507 9.36081 16.1518 9.35763 16.0529C9.35185 15.9331 9.39668 15.8851 9.52541 15.927L9.52512 17.0115Z" fill="#FEFBF1"/>
<path d="M5.78166 15.916H5.97056C5.95551 16.2093 5.95841 16.4972 5.91675 16.7818C5.88782 16.9944 5.6564 17.0873 5.37147 17.0482C5.28368 17.0369 5.20333 16.9931 5.1462 16.9255C5.08908 16.8579 5.05933 16.7713 5.06281 16.6829C5.05992 16.428 5.06281 16.1767 5.06281 15.916H5.24013C5.24013 16.1616 5.23724 16.4043 5.24013 16.6467C5.23785 16.6944 5.2491 16.7417 5.27258 16.7832C5.29606 16.8247 5.33082 16.8587 5.37283 16.8813C5.41483 16.9038 5.46237 16.9141 5.50995 16.9107C5.55752 16.9074 5.60318 16.8907 5.64165 16.8625C5.7217 16.7867 5.7699 16.6833 5.77645 16.5733C5.79641 16.3603 5.78166 16.1445 5.78166 15.916Z" fill="#FEFBF1"/>
<path d="M8.52017 16.9972C8.37929 17.0481 8.31768 17.0061 8.29251 16.8815C8.27168 16.7765 8.22974 16.6839 8.08597 16.7018C7.95088 16.7169 7.78628 16.6477 7.75041 16.8664C7.72929 16.9801 7.67867 17.0672 7.52246 17.0012C7.65148 16.666 7.77731 16.3272 7.91212 15.9917C7.92547 15.9715 7.94315 15.9546 7.96387 15.9422C7.98459 15.9298 8.00783 15.9222 8.03187 15.9199C8.05454 15.9203 8.07675 15.9263 8.09657 15.9373C8.11639 15.9483 8.13321 15.964 8.14556 15.983C8.27776 16.3171 8.39752 16.6555 8.52017 16.9972ZM7.87017 16.5448H8.17883C8.12791 16.4039 8.08597 16.2844 8.04084 16.1673C8.02977 16.1666 8.01866 16.1676 8.00786 16.1701C7.96303 16.2899 7.91819 16.4071 7.87017 16.5448Z" fill="#FEFBF1"/>
<path d="M10.6484 16.9958C10.5038 17.0467 10.4479 17.0019 10.4207 16.885C10.4057 16.822 10.3666 16.7233 10.3247 16.7173C10.203 16.6934 10.0778 16.6934 9.95615 16.7173C9.9171 16.7262 9.88441 16.828 9.86937 16.894C9.84044 17.0138 9.77015 17.0438 9.65039 16.9987C9.77941 16.6574 9.90814 16.3189 10.04 15.9831C10.0522 15.964 10.0684 15.9479 10.0876 15.936C10.1068 15.9241 10.1284 15.9166 10.1508 15.9142C10.1737 15.9131 10.1964 15.9175 10.2172 15.9269C10.238 15.9363 10.2563 15.9505 10.2706 15.9683C10.3999 16.3068 10.5197 16.6481 10.6484 16.9958ZM10.3094 16.5535C10.2553 16.4089 10.2075 16.2932 10.1624 16.1731C10.1504 16.1727 10.1383 16.1736 10.1265 16.176C10.0846 16.2958 10.0426 16.4158 9.99463 16.5535H10.3094Z" fill="#FEFBF1"/>
<path d="M3.30272 15.9087C3.35363 16.0285 3.29664 16.0496 3.20697 16.0534C2.95819 16.0623 2.95819 16.0655 2.95819 16.3137C2.95819 16.5026 2.95212 16.6912 2.96108 16.883C2.96716 17.0088 2.91914 17.0447 2.78752 16.9987C2.78752 16.7502 2.78145 16.4954 2.79041 16.2437C2.79649 16.106 2.76351 16.0432 2.61077 16.049C2.54482 16.0519 2.42188 16.001 2.42188 15.9802C2.43084 15.8512 2.54163 15.9142 2.60759 15.9113C2.83843 15.9056 3.07188 15.9087 3.30272 15.9087Z" fill="#FEFBF1"/>
<path d="M11.2121 17.0028C11.0623 17.0477 11.0293 16.9907 11.0325 16.8738C11.0386 16.6461 11.0293 16.4156 11.0354 16.1879C11.0386 16.08 10.9966 16.0433 10.8945 16.0531C10.8406 16.0586 10.7862 16.0566 10.7328 16.0471C10.7189 16.0416 10.7066 16.0327 10.6971 16.0212C10.6876 16.0096 10.6813 15.9958 10.6787 15.9811C10.6787 15.96 10.7149 15.9183 10.7366 15.9183C11 15.9152 11.2636 15.9152 11.5274 15.9183C11.5454 15.9183 11.5815 15.9542 11.5784 15.9721C11.5759 15.9876 11.5703 16.0025 11.5621 16.0158C11.5539 16.0292 11.5431 16.0408 11.5303 16.0499C11.5092 16.065 11.4725 16.056 11.4436 16.0592C11.2121 16.0682 11.2121 16.0682 11.2121 16.3077V17.0028Z" fill="#FEFBF1"/>
<path d="M2.10742 15.916H2.26016V17.0095C2.20925 17.0124 2.16441 17.0156 2.10742 17.0184V15.916Z" fill="#FEFBF1"/>
<path d="M11.8832 17.0109H11.7305V15.9232C11.7785 15.9204 11.8265 15.9143 11.8832 15.9082V17.0109Z" fill="#FEFBF1"/>
<path d="M1.6772 15.916H1.85395V16.527C1.85395 16.6621 1.86002 16.7969 1.85106 16.9285C1.84816 16.9574 1.79725 16.9887 1.76717 17.0184C1.73824 16.9895 1.68328 16.9586 1.68328 16.9285C1.67431 16.597 1.6772 16.2631 1.6772 15.916Z" fill="#FEFBF1"/>
</svg>
