<svg width="487" height="202" viewBox="0 0 487 202" fill="none" xmlns="http://www.w3.org/2000/svg">
<path d="M469.386 135.086C469.386 107.369 446.917 84.8999 419.2 84.8999C391.483 84.8999 369.015 107.369 369.014 135.086C369.014 162.802 391.483 185.271 419.2 185.271V202L418.767 201.999C382.011 201.766 352.286 171.897 352.286 135.086C352.286 98.1298 382.244 68.1712 419.2 68.1712L419.633 68.1727C456.389 68.4054 486.115 98.2742 486.115 135.086L486.113 135.518C485.88 172.275 456.012 202 419.2 202V185.271C446.917 185.271 469.386 162.802 469.386 135.086ZM176.005 137.042C176.042 137.043 186.987 137.056 195.236 145.124C203.499 153.205 217.142 172.161 228.224 198.669H203.838L203.697 198.165C197.679 176.803 182.558 148.704 165.125 139.843C168.607 138.073 172.181 137.071 175.793 137.042H176.005ZM91.5689 87.7409H21.4427V126.105H85.859V141.451H21.4427V182.313H91.5689V198.551H1.63618V71.503H91.5689V87.7409ZM297.784 71.503C324.907 71.5031 342.037 85.4213 342.037 111.295C342.037 137.168 324.907 150.908 297.784 150.908H263.345V198.551H243.539V71.503H297.784ZM175.786 136.061C154.116 136.23 133.819 171.463 126.574 197.084L126.405 197.688H102.019C113.101 171.179 126.744 152.224 135.007 144.143C143.27 136.061 154.239 136.061 154.239 136.061H175.786ZM263.345 135.919H295.107C312.773 135.919 322.23 127.89 322.23 111.295C322.23 94.7 312.773 86.4919 295.107 86.4919H263.345V135.919ZM228.217 72.4835C217.135 98.9916 203.492 117.947 195.229 126.028C186.966 134.11 175.997 134.11 175.997 134.11H154.45C176.29 133.94 196.737 98.1508 203.831 72.4835H228.217ZM126.405 71.5037C132.326 92.9258 147.547 121.398 165.118 130.329C161.636 132.099 158.062 133.102 154.45 133.13H154.238C154.238 133.13 143.27 133.13 135.007 125.049C126.744 116.967 113.101 98.0118 102.019 71.5037H126.405ZM21.9115 0C35.7504 0 42.4393 6.68879 42.4393 17.3755H34.4433C33.5976 10.1485 29.9842 6.45819 21.6808 6.45819C13.5314 6.45821 9.91797 10.3023 9.91793 16.1453C9.91793 20.2969 11.84 22.5266 19.5283 23.603L27.1395 24.7563C37.9799 26.2939 43.823 30.4455 43.823 39.287C43.823 49.6661 36.7498 56.2781 21.9115 56.2781C7.07319 56.2781 0 49.8199 0 38.1337H8.22643C9.07214 46.0526 12.532 49.8199 22.0654 49.8199C31.445 49.8199 35.2892 45.8989 35.2892 39.8252C35.2892 35.8273 33.0594 32.9826 24.3717 31.7525L16.7605 30.5992C5.45872 28.9847 1.3839 24.9099 1.3839 16.6066C1.38394 6.84253 8.0727 1.71455e-05 21.9115 0ZM252.021 0.768901V34.059C252.021 45.2838 256.404 49.2819 266.321 49.2819C276.239 49.2819 280.622 45.2839 280.622 34.059V0.768901H289.156V34.8279C289.155 48.9743 282.005 56.2781 266.321 56.2781C250.637 56.2781 243.487 48.9743 243.487 34.8279V0.768901H252.021ZM90.5251 7.76513H73.4572V55.5092H64.9232V7.76513H47.9321V0.768901H90.5251V7.76513ZM139.07 55.5092H130.229L125.462 42.9006H100.398L95.5548 55.5092H86.7904L107.702 0.768901H118.159L139.07 55.5092ZM171.453 0.768901C182.755 0.768915 188.982 6.68879 188.982 16.2222C188.982 23.2185 185.599 27.9084 179.218 29.7536C185.138 31.1375 188.214 35.2123 188.214 41.2091V49.9738C188.214 52.2802 188.521 54.2022 188.982 55.5092H180.91C180.239 54.0941 179.713 52.4625 179.681 50.1951L179.68 49.9738V41.5167C179.68 34.5204 175.297 32.6751 169.454 32.6751H155.077V55.5092H146.543V0.768901H171.453ZM236.269 7.76513H219.201V55.5092H210.667V7.76513H193.676V0.768901H236.269V7.76513ZM333.4 17.9137C333.4 10.7636 329.325 7.22688 321.713 7.22688H308.028V28.5234H321.713C329.206 28.5234 333.272 25.171 333.397 18.2461L333.4 17.9137ZM102.551 36.2885H123.31L112.93 8.68773L102.551 36.2885ZM155.077 26.2169H170.53C177.527 26.2169 180.448 22.4498 180.448 16.7605C180.448 11.0712 177.527 7.22689 170.53 7.22688H155.077V26.2169ZM341.932 18.1739C341.818 29.1538 334.462 34.9816 322.867 34.9816H308.028V55.5092H299.494V0.768901H322.867C334.553 0.768901 341.934 6.76574 341.934 17.9137L341.932 18.1739Z" fill="#0A0024"/>
</svg>
