<svg width="1085" height="503" viewBox="0 0 1085 503" fill="none" xmlns="http://www.w3.org/2000/svg">
<rect x="-47" y="-17.5938" width="90.6" height="90.6" stroke="#9D8873" stroke-width="1.33628"/>
<path d="M-1.7002 -11.7812L37.7849 27.7038L-1.7002 67.1889L-41.1853 27.7038L-1.7002 -11.7812Z" stroke="#9D8873" stroke-width="1.76112"/>
<path d="M-1.7002 1.38044L24.6232 27.7038L-1.7002 54.0272L-28.0236 27.7038L-1.7002 1.38044Z" stroke="#9D8873" stroke-width="1.76112"/>
<path d="M-1.7002 14.5421L11.4615 27.7038L-1.7002 40.8655L-14.8619 27.7038L-1.7002 14.5421Z" stroke="#9D8873" stroke-width="1.76112"/>
<rect x="43.6001" y="-17.5938" width="90.6" height="90.6" stroke="#9D8873" stroke-width="1.33628"/>
<path d="M103.404 13.2683H126.85L112.376 27.7423L126.844 42.2102H103.404V65.6563L88.9301 51.1823L74.4622 65.6502V42.2102H51.0222L65.4902 27.7423L51.0161 13.2683H74.4622V-10.1716L88.9301 4.2963L103.404 -10.1777V13.2683Z" stroke="#9D8873" stroke-width="1.76112"/>
<rect x="134.2" y="-17.5938" width="90.6" height="90.6" stroke="#9D8873" stroke-width="1.33628"/>
<path d="M140.08 8.95614L158.877 27.7405M158.877 27.7405L169.352 38.2089M158.877 27.7405L169.352 17.2722M158.877 27.7405L140.08 46.5249M169.352 38.2089L179.827 48.6771M169.352 38.2089L179.827 27.7405M169.352 38.2089L150.555 56.9932M179.827 48.6771L198.037 66.8762M179.827 48.6771L190.302 38.2089M179.827 48.6771L161.03 67.4616M198.037 -11.3951L179.827 6.80393M179.827 6.80393L169.352 17.2722M179.827 6.80393L161.03 -11.9805M179.827 6.80393L190.302 17.2722M169.352 17.2722L150.555 -1.51217M169.352 17.2722L179.827 27.7405M179.827 27.7405L190.302 38.2089M179.827 27.7405L190.302 17.2722M190.302 38.2089L208.513 56.4079M190.302 38.2089L200.777 27.7405M208.513 -0.926767L190.302 17.2722M190.302 17.2722L200.777 27.7405M200.777 27.7405L218.988 45.9396M200.777 27.7405L218.988 9.54154" stroke="#9D8873" stroke-width="1.76112"/>
<rect x="-47" y="73.0059" width="90.6" height="90.6" stroke="#9D8873" stroke-width="1.33628"/>
<path d="M-41.1201 99.5557L-22.3236 118.34M-22.3236 118.34L-11.8485 128.808M-22.3236 118.34L-11.8485 107.872M-22.3236 118.34L-41.1201 137.125M-11.8485 128.808L-1.37347 139.277M-11.8485 128.808L-1.37347 118.34M-11.8485 128.808L-30.6451 147.593M-1.37347 139.277L16.8373 157.476M-1.37347 139.277L9.10159 128.808M-1.37347 139.277L-20.17 158.061M16.8373 79.2045L-1.37347 97.4035M-1.37347 97.4035L-11.8485 107.872M-1.37347 97.4035L-20.17 78.6191M-1.37347 97.4035L9.10159 107.872M-11.8485 107.872L-30.6451 89.0874M-11.8485 107.872L-1.37347 118.34M-1.37347 118.34L9.10159 128.808M-1.37347 118.34L9.10159 107.872M9.10159 128.808L27.3123 147.007M9.10159 128.808L19.5766 118.34M27.3123 89.6728L9.10159 107.872M9.10159 107.872L19.5766 118.34M19.5766 118.34L37.7874 136.539M19.5766 118.34L37.7874 100.141" stroke="#9D8873" stroke-width="1.76112"/>
<rect x="43.6001" y="73.0059" width="90.6" height="90.6" stroke="#9D8873" stroke-width="1.33628"/>
<path d="M88.9004 78.8184L128.385 118.303L88.9004 157.789L49.4153 118.303L88.9004 78.8184Z" stroke="#9D8873" stroke-width="1.76112"/>
<path d="M88.9004 91.9801L115.224 118.303L88.9004 144.627L62.577 118.303L88.9004 91.9801Z" stroke="#9D8873" stroke-width="1.76112"/>
<path d="M88.9004 105.142L102.062 118.303L88.9004 131.465L75.7387 118.303L88.9004 105.142Z" stroke="#9D8873" stroke-width="1.76112"/>
<rect x="134.2" y="73.0059" width="90.6" height="90.6" stroke="#9D8873" stroke-width="1.33628"/>
<path d="M194.004 103.872H217.45L202.976 118.346L217.444 132.814H194.004V156.26L179.53 141.786L165.062 156.254V132.814H141.622L156.09 118.346L141.616 103.872H165.062V80.4319L179.53 94.8998L194.004 80.4258V103.872Z" stroke="#9D8873" stroke-width="1.76112"/>
<rect x="-47" y="163.607" width="90.6" height="90.6" stroke="#9D8873" stroke-width="1.33628"/>
<path d="M12.804 194.469H36.2501L21.776 208.944L36.244 223.411H12.804V246.858L-1.67001 232.383L-16.1379 246.851V223.411H-39.5779L-25.1099 208.944L-39.584 194.469H-16.1379V171.03L-1.67001 185.497L12.804 171.023V194.469Z" stroke="#9D8873" stroke-width="1.76112"/>
<rect x="43.6001" y="163.607" width="90.6" height="90.6" stroke="#9D8873" stroke-width="1.33628"/>
<path d="M88.9004 169.424L128.385 208.909L88.9004 248.394L49.4153 208.909L88.9004 169.424Z" stroke="#9D8873" stroke-width="1.76112"/>
<path d="M88.9004 182.586L115.224 208.909L88.9004 235.232L62.577 208.909L88.9004 182.586Z" stroke="#9D8873" stroke-width="1.76112"/>
<path d="M88.9004 195.747L102.062 208.909L88.9004 222.071L75.7387 208.909L88.9004 195.747Z" stroke="#9D8873" stroke-width="1.76112"/>
<rect x="134.2" y="163.607" width="90.6" height="90.6" stroke="#9D8873" stroke-width="1.33628"/>
<path d="M140.08 190.159L158.877 208.944M158.877 208.944L169.352 219.412M158.877 208.944L169.352 198.475M158.877 208.944L140.08 227.728M169.352 219.412L179.827 229.88M169.352 219.412L179.827 208.944M169.352 219.412L150.555 238.196M179.827 229.88L198.037 248.079M179.827 229.88L190.302 219.412M179.827 229.88L161.03 248.665M198.037 169.808L179.827 188.007M179.827 188.007L169.352 198.475M179.827 188.007L161.03 169.223M179.827 188.007L190.302 198.475M169.352 198.475L150.555 179.691M169.352 198.475L179.827 208.944M179.827 208.944L190.302 219.412M179.827 208.944L190.302 198.475M190.302 219.412L208.513 237.611M190.302 219.412L200.777 208.944M208.513 180.276L190.302 198.475M190.302 198.475L200.777 208.944M200.777 208.944L218.988 227.143M200.777 208.944L218.988 190.745" stroke="#9D8873" stroke-width="1.76112"/>
<rect x="-47" y="254.207" width="90.6" height="90.6" stroke="#9D8873" stroke-width="1.33628"/>
<path d="M-1.7002 260.016L37.7849 299.501L-1.7002 338.986L-41.1853 299.501L-1.7002 260.016Z" stroke="#9D8873" stroke-width="1.76112"/>
<path d="M-1.7002 273.177L24.6232 299.501L-1.7002 325.824L-28.0236 299.501L-1.7002 273.177Z" stroke="#9D8873" stroke-width="1.76112"/>
<path d="M-1.7002 286.339L11.4615 299.501L-1.7002 312.662L-14.8619 299.501L-1.7002 286.339Z" stroke="#9D8873" stroke-width="1.76112"/>
<rect x="43.6001" y="254.207" width="90.6" height="90.6" stroke="#9D8873" stroke-width="1.33628"/>
<path d="M49.48 280.755L68.2765 299.539M68.2765 299.539L78.7516 310.008M68.2765 299.539L78.7516 289.071M68.2765 299.539L49.48 318.324M78.7516 310.008L89.2266 320.476M78.7516 310.008L89.2266 299.539M78.7516 310.008L59.955 328.792M89.2266 320.476L107.437 338.675M89.2266 320.476L99.7017 310.008M89.2266 320.476L70.4301 339.26M107.437 260.404L89.2266 278.603M89.2266 278.603L78.7516 289.071M89.2266 278.603L70.4301 259.818M89.2266 278.603L99.7017 289.071M78.7516 289.071L59.955 270.287M78.7516 289.071L89.2266 299.539M89.2266 299.539L99.7017 310.008M89.2266 299.539L99.7017 289.071M99.7017 310.008L117.912 328.207M99.7017 310.008L110.177 299.539M117.912 270.872L99.7017 289.071M99.7017 289.071L110.177 299.539M110.177 299.539L128.387 317.738M110.177 299.539L128.387 281.34" stroke="#9D8873" stroke-width="1.76112"/>
<rect x="134.2" y="254.207" width="90.6" height="90.6" stroke="#9D8873" stroke-width="1.33628"/>
<path d="M194.004 285.067H217.45L202.976 299.541L217.444 314.009H194.004V337.455L179.53 322.981L165.062 337.449V314.009H141.622L156.09 299.541L141.616 285.067H165.062V261.627L179.53 276.095L194.004 261.621V285.067Z" stroke="#9D8873" stroke-width="1.76112"/>
<rect x="-47" y="344.807" width="90.6" height="90.6" stroke="#9D8873" stroke-width="1.33628"/>
<path d="M-41.1201 371.355L-22.3236 390.139M-22.3236 390.139L-11.8485 400.607M-22.3236 390.139L-11.8485 379.671M-22.3236 390.139L-41.1201 408.923M-11.8485 400.607L-1.37347 411.076M-11.8485 400.607L-1.37347 390.139M-11.8485 400.607L-30.6451 419.392M-1.37347 411.076L16.8373 429.275M-1.37347 411.076L9.10159 400.607M-1.37347 411.076L-20.17 429.86M16.8373 351.003L-1.37347 369.202M-1.37347 369.202L-11.8485 379.671M-1.37347 369.202L-20.17 350.418M-1.37347 369.202L9.10159 379.671M-11.8485 379.671L-30.6451 360.886M-11.8485 379.671L-1.37347 390.139M-1.37347 390.139L9.10159 400.607M-1.37347 390.139L9.10159 379.671M9.10159 400.607L27.3123 418.806M9.10159 400.607L19.5766 390.139M27.3123 361.472L9.10159 379.671M9.10159 379.671L19.5766 390.139M19.5766 390.139L37.7874 408.338M19.5766 390.139L37.7874 371.94" stroke="#9D8873" stroke-width="1.76112"/>
<rect x="43.6001" y="344.807" width="90.6" height="90.6" stroke="#9D8873" stroke-width="1.33628"/>
<path d="M103.404 375.671H126.85L112.376 390.145L126.844 404.613H103.404V428.059L88.9301 413.585L74.4622 428.053V404.613H51.0222L65.4902 390.145L51.0161 375.671H74.4622V352.231L88.9301 366.699L103.404 352.225V375.671Z" stroke="#9D8873" stroke-width="1.76112"/>
<rect x="134.2" y="344.807" width="90.6" height="90.6" stroke="#9D8873" stroke-width="1.33628"/>
<path d="M179.5 350.619L218.986 390.104L179.5 429.589L140.015 390.104L179.5 350.619Z" stroke="#9D8873" stroke-width="1.76112"/>
<path d="M179.5 363.781L205.824 390.104L179.5 416.428L153.177 390.104L179.5 363.781Z" stroke="#9D8873" stroke-width="1.76112"/>
<path d="M179.5 376.943L192.662 390.104L179.5 403.266L166.339 390.104L179.5 376.943Z" stroke="#9D8873" stroke-width="1.76112"/>
<rect x="224.8" y="-17.5938" width="90.6" height="90.6" stroke="#9D8873" stroke-width="1.33628"/>
<path d="M270.1 -11.7812L309.585 27.7038L270.1 67.1889L230.615 27.7038L270.1 -11.7812Z" stroke="#9D8873" stroke-width="1.76112"/>
<path d="M270.1 1.38044L296.423 27.7038L270.1 54.0272L243.776 27.7038L270.1 1.38044Z" stroke="#9D8873" stroke-width="1.76112"/>
<path d="M270.1 14.5421L283.261 27.7038L270.1 40.8655L256.938 27.7038L270.1 14.5421Z" stroke="#9D8873" stroke-width="1.76112"/>
<rect x="315.4" y="-17.5938" width="90.6" height="90.6" stroke="#9D8873" stroke-width="1.33628"/>
<path d="M375.204 13.2683H398.65L384.176 27.7423L398.644 42.2102H375.204V65.6563L360.73 51.1823L346.262 65.6502V42.2102H322.822L337.29 27.7423L322.816 13.2683H346.262V-10.1716L360.73 4.2963L375.204 -10.1777V13.2683Z" stroke="#9D8873" stroke-width="1.76112"/>
<rect x="406" y="-17.5938" width="90.6" height="90.6" stroke="#9D8873" stroke-width="1.33628"/>
<path d="M411.88 8.95614L430.676 27.7405M430.676 27.7405L441.151 38.2089M430.676 27.7405L441.151 17.2722M430.676 27.7405L411.88 46.5249M441.151 38.2089L451.627 48.6771M441.151 38.2089L451.627 27.7405M441.151 38.2089L422.355 56.9932M451.627 48.6771L469.837 66.8762M451.627 48.6771L462.102 38.2089M451.627 48.6771L432.83 67.4616M469.837 -11.3951L451.627 6.80393M451.627 6.80393L441.151 17.2722M451.627 6.80393L432.83 -11.9805M451.627 6.80393L462.102 17.2722M441.151 17.2722L422.355 -1.51217M441.151 17.2722L451.627 27.7405M451.627 27.7405L462.102 38.2089M451.627 27.7405L462.102 17.2722M462.102 38.2089L480.312 56.4079M462.102 38.2089L472.577 27.7405M480.312 -0.926767L462.102 17.2722M462.102 17.2722L472.577 27.7405M472.577 27.7405L490.787 45.9396M472.577 27.7405L490.787 9.54154" stroke="#9D8873" stroke-width="1.76112"/>
<rect x="224.8" y="73.0059" width="90.6" height="90.6" stroke="#9D8873" stroke-width="1.33628"/>
<path d="M284.604 103.872H308.05L293.576 118.346L308.044 132.814H284.604V156.26L270.13 141.786L255.662 156.254V132.814H232.222L246.69 118.346L232.216 103.872H255.662V80.4319L270.13 94.8998L284.604 80.4258V103.872Z" stroke="#9D8873" stroke-width="1.76112"/>
<rect x="315.4" y="73.0059" width="90.6" height="90.6" stroke="#9D8873" stroke-width="1.33628"/>
<path d="M321.28 99.5557L340.076 118.34M340.076 118.34L350.551 128.808M340.076 118.34L350.551 107.872M340.076 118.34L321.28 137.125M350.551 128.808L361.026 139.277M350.551 128.808L361.026 118.34M350.551 128.808L331.755 147.593M361.026 139.277L379.237 157.476M361.026 139.277L371.501 128.808M361.026 139.277L342.23 158.061M379.237 79.2045L361.026 97.4035M361.026 97.4035L350.551 107.872M361.026 97.4035L342.23 78.6191M361.026 97.4035L371.501 107.872M350.551 107.872L331.755 89.0874M350.551 107.872L361.026 118.34M361.026 118.34L371.501 128.808M361.026 118.34L371.501 107.872M371.501 128.808L389.712 147.007M371.501 128.808L381.977 118.34M389.712 89.6728L371.501 107.872M371.501 107.872L381.977 118.34M381.977 118.34L400.187 136.539M381.977 118.34L400.187 100.141" stroke="#9D8873" stroke-width="1.76112"/>
<rect x="406" y="73.0059" width="90.6" height="90.6" stroke="#9D8873" stroke-width="1.33628"/>
<path d="M451.3 78.8184L490.785 118.303L451.3 157.789L411.815 118.303L451.3 78.8184Z" stroke="#9D8873" stroke-width="1.76112"/>
<path d="M451.3 91.9801L477.624 118.303L451.3 144.627L424.977 118.303L451.3 91.9801Z" stroke="#9D8873" stroke-width="1.76112"/>
<path d="M451.3 105.142L464.462 118.303L451.3 131.465L438.139 118.303L451.3 105.142Z" stroke="#9D8873" stroke-width="1.76112"/>
<rect x="224.8" y="163.607" width="90.6" height="90.6" stroke="#9D8873" stroke-width="1.33628"/>
<path d="M230.68 190.159L249.476 208.944M249.476 208.944L259.951 219.412M249.476 208.944L259.951 198.475M249.476 208.944L230.68 227.728M259.951 219.412L270.426 229.88M259.951 219.412L270.426 208.944M259.951 219.412L241.155 238.196M270.426 229.88L288.637 248.079M270.426 229.88L280.901 219.412M270.426 229.88L251.63 248.665M288.637 169.808L270.426 188.007M270.426 188.007L259.951 198.475M270.426 188.007L251.63 169.223M270.426 188.007L280.901 198.475M259.951 198.475L241.155 179.691M259.951 198.475L270.426 208.944M270.426 208.944L280.901 219.412M270.426 208.944L280.901 198.475M280.901 219.412L299.112 237.611M280.901 219.412L291.376 208.944M299.112 180.276L280.901 198.475M280.901 198.475L291.376 208.944M291.376 208.944L309.587 227.143M291.376 208.944L309.587 190.745" stroke="#9D8873" stroke-width="1.76112"/>
<rect x="315.4" y="163.607" width="90.6" height="90.6" stroke="#9D8873" stroke-width="1.33628"/>
<path d="M375.204 194.469H398.65L384.176 208.944L398.644 223.411H375.204V246.858L360.73 232.383L346.262 246.851V223.411H322.822L337.29 208.944L322.816 194.469H346.262V171.03L360.73 185.497L375.204 171.023V194.469Z" stroke="#9D8873" stroke-width="1.76112"/>
<rect x="406" y="163.607" width="90.6" height="90.6" stroke="#9D8873" stroke-width="1.33628"/>
<path d="M451.3 169.424L490.785 208.909L451.3 248.394L411.815 208.909L451.3 169.424Z" stroke="#9D8873" stroke-width="1.76112"/>
<path d="M451.3 182.586L477.624 208.909L451.3 235.232L424.977 208.909L451.3 182.586Z" stroke="#9D8873" stroke-width="1.76112"/>
<path d="M451.3 195.747L464.462 208.909L451.3 222.071L438.139 208.909L451.3 195.747Z" stroke="#9D8873" stroke-width="1.76112"/>
<rect x="224.8" y="254.207" width="90.6" height="90.6" stroke="#9D8873" stroke-width="1.33628"/>
<path d="M270.1 260.016L309.585 299.501L270.1 338.986L230.615 299.501L270.1 260.016Z" stroke="#9D8873" stroke-width="1.76112"/>
<path d="M270.1 273.177L296.423 299.501L270.1 325.824L243.776 299.501L270.1 273.177Z" stroke="#9D8873" stroke-width="1.76112"/>
<path d="M270.1 286.339L283.261 299.501L270.1 312.662L256.938 299.501L270.1 286.339Z" stroke="#9D8873" stroke-width="1.76112"/>
<rect x="315.4" y="254.207" width="90.6" height="90.6" stroke="#9D8873" stroke-width="1.33628"/>
<path d="M321.28 280.755L340.076 299.539M340.076 299.539L350.551 310.008M340.076 299.539L350.551 289.071M340.076 299.539L321.28 318.324M350.551 310.008L361.026 320.476M350.551 310.008L361.026 299.539M350.551 310.008L331.755 328.792M361.026 320.476L379.237 338.675M361.026 320.476L371.501 310.008M361.026 320.476L342.23 339.26M379.237 260.404L361.026 278.603M361.026 278.603L350.551 289.071M361.026 278.603L342.23 259.818M361.026 278.603L371.501 289.071M350.551 289.071L331.755 270.287M350.551 289.071L361.026 299.539M361.026 299.539L371.501 310.008M361.026 299.539L371.501 289.071M371.501 310.008L389.712 328.207M371.501 310.008L381.977 299.539M389.712 270.872L371.501 289.071M371.501 289.071L381.977 299.539M381.977 299.539L400.187 317.738M381.977 299.539L400.187 281.34" stroke="#9D8873" stroke-width="1.76112"/>
<rect x="406" y="254.207" width="90.6" height="90.6" stroke="#9D8873" stroke-width="1.33628"/>
<path d="M465.805 285.067H489.251L474.777 299.541L489.244 314.009H465.805V337.455L451.33 322.981L436.863 337.449V314.009H413.423L427.891 299.541L413.417 285.067H436.863V261.627L451.33 276.095L465.805 261.621V285.067Z" stroke="#9D8873" stroke-width="1.76112"/>
<rect x="224.8" y="344.807" width="90.6" height="90.6" stroke="#9D8873" stroke-width="1.33628"/>
<path d="M284.604 375.671H308.05L293.576 390.145L308.044 404.613H284.604V428.059L270.13 413.585L255.662 428.053V404.613H232.222L246.69 390.145L232.216 375.671H255.662V352.231L270.13 366.699L284.604 352.225V375.671Z" stroke="#9D8873" stroke-width="1.76112"/>
<rect x="315.4" y="344.807" width="90.6" height="90.6" stroke="#9D8873" stroke-width="1.33628"/>
<path d="M360.7 350.619L400.185 390.104L360.7 429.589L321.215 390.104L360.7 350.619Z" stroke="#9D8873" stroke-width="1.76112"/>
<path d="M360.7 363.781L387.024 390.104L360.7 416.428L334.377 390.104L360.7 363.781Z" stroke="#9D8873" stroke-width="1.76112"/>
<path d="M360.7 376.943L373.862 390.104L360.7 403.266L347.539 390.104L360.7 376.943Z" stroke="#9D8873" stroke-width="1.76112"/>
<rect x="406" y="344.807" width="90.6" height="90.6" stroke="#9D8873" stroke-width="1.33628"/>
<path d="M411.88 371.355L430.676 390.139M430.676 390.139L441.151 400.607M430.676 390.139L441.151 379.671M430.676 390.139L411.88 408.923M441.151 400.607L451.627 411.076M441.151 400.607L451.627 390.139M441.151 400.607L422.355 419.392M451.627 411.076L469.837 429.275M451.627 411.076L462.102 400.607M451.627 411.076L432.83 429.86M469.837 351.003L451.627 369.202M451.627 369.202L441.151 379.671M451.627 369.202L432.83 350.418M451.627 369.202L462.102 379.671M441.151 379.671L422.355 360.886M441.151 379.671L451.627 390.139M451.627 390.139L462.102 400.607M451.627 390.139L462.102 379.671M462.102 400.607L480.312 418.806M462.102 400.607L472.577 390.139M480.312 361.472L462.102 379.671M462.102 379.671L472.577 390.139M472.577 390.139L490.787 408.338M472.577 390.139L490.787 371.94" stroke="#9D8873" stroke-width="1.76112"/>
<rect x="496.6" y="-17.5938" width="90.6" height="90.6" stroke="#9D8873" stroke-width="1.33628"/>
<path d="M541.9 -11.7812L581.385 27.7038L541.9 67.1889L502.415 27.7038L541.9 -11.7812Z" stroke="#9D8873" stroke-width="1.76112"/>
<path d="M541.9 1.38044L568.224 27.7038L541.9 54.0272L515.577 27.7038L541.9 1.38044Z" stroke="#9D8873" stroke-width="1.76112"/>
<path d="M541.9 14.5421L555.062 27.7038L541.9 40.8655L528.739 27.7038L541.9 14.5421Z" stroke="#9D8873" stroke-width="1.76112"/>
<rect x="587.2" y="-17.5938" width="90.6" height="90.6" stroke="#9D8873" stroke-width="1.33628"/>
<path d="M593.08 8.95614L611.877 27.7405M611.877 27.7405L622.352 38.2089M611.877 27.7405L622.352 17.2722M611.877 27.7405L593.08 46.5249M622.352 38.2089L632.827 48.6771M622.352 38.2089L632.827 27.7405M622.352 38.2089L603.555 56.9932M632.827 48.6771L651.037 66.8762M632.827 48.6771L643.302 38.2089M632.827 48.6771L614.03 67.4616M651.037 -11.3951L632.827 6.80393M632.827 6.80393L622.352 17.2722M632.827 6.80393L614.03 -11.9805M632.827 6.80393L643.302 17.2722M622.352 17.2722L603.555 -1.51217M622.352 17.2722L632.827 27.7405M632.827 27.7405L643.302 38.2089M632.827 27.7405L643.302 17.2722M643.302 38.2089L661.513 56.4079M643.302 38.2089L653.777 27.7405M661.513 -0.926767L643.302 17.2722M643.302 17.2722L653.777 27.7405M653.777 27.7405L671.988 45.9396M653.777 27.7405L671.988 9.54154" stroke="#9D8873" stroke-width="1.76112"/>
<rect x="677.8" y="-17.5938" width="90.6" height="90.6" stroke="#9D8873" stroke-width="1.33628"/>
<path d="M737.604 13.2683H761.05L746.576 27.7423L761.044 42.2102H737.604V65.6563L723.13 51.1823L708.662 65.6502V42.2102H685.222L699.69 27.7423L685.216 13.2683H708.662V-10.1716L723.13 4.2963L737.604 -10.1777V13.2683Z" stroke="#9D8873" stroke-width="1.76112"/>
<rect x="496.6" y="73.0059" width="90.6" height="90.6" stroke="#9D8873" stroke-width="1.33628"/>
<path d="M556.404 103.872H579.85L565.376 118.346L579.844 132.814H556.404V156.26L541.93 141.786L527.462 156.254V132.814H504.022L518.49 118.346L504.016 103.872H527.462V80.4319L541.93 94.8998L556.404 80.4258V103.872Z" stroke="#9D8873" stroke-width="1.76112"/>
<rect x="587.2" y="73.0059" width="90.6" height="90.6" stroke="#9D8873" stroke-width="1.33628"/>
<path d="M593.08 99.5557L611.877 118.34M611.877 118.34L622.352 128.808M611.877 118.34L622.352 107.872M611.877 118.34L593.08 137.125M622.352 128.808L632.827 139.277M622.352 128.808L632.827 118.34M622.352 128.808L603.555 147.593M632.827 139.277L651.037 157.476M632.827 139.277L643.302 128.808M632.827 139.277L614.03 158.061M651.037 79.2045L632.827 97.4035M632.827 97.4035L622.352 107.872M632.827 97.4035L614.03 78.6191M632.827 97.4035L643.302 107.872M622.352 107.872L603.555 89.0874M622.352 107.872L632.827 118.34M632.827 118.34L643.302 128.808M632.827 118.34L643.302 107.872M643.302 128.808L661.513 147.007M643.302 128.808L653.777 118.34M661.513 89.6728L643.302 107.872M643.302 107.872L653.777 118.34M653.777 118.34L671.988 136.539M653.777 118.34L671.988 100.141" stroke="#9D8873" stroke-width="1.76112"/>
<rect x="677.8" y="73.0059" width="90.6" height="90.6" stroke="#9D8873" stroke-width="1.33628"/>
<path d="M723.1 78.8184L762.585 118.303L723.1 157.789L683.615 118.303L723.1 78.8184Z" stroke="#9D8873" stroke-width="1.76112"/>
<path d="M723.1 91.9801L749.423 118.303L723.1 144.627L696.777 118.303L723.1 91.9801Z" stroke="#9D8873" stroke-width="1.76112"/>
<path d="M723.1 105.142L736.262 118.303L723.1 131.465L709.938 118.303L723.1 105.142Z" stroke="#9D8873" stroke-width="1.76112"/>
<rect x="496.6" y="163.607" width="90.6" height="90.6" stroke="#9D8873" stroke-width="1.33628"/>
<path d="M502.48 190.159L521.277 208.944M521.277 208.944L531.752 219.412M521.277 208.944L531.752 198.475M521.277 208.944L502.48 227.728M531.752 219.412L542.227 229.88M531.752 219.412L542.227 208.944M531.752 219.412L512.955 238.196M542.227 229.88L560.437 248.079M542.227 229.88L552.702 219.412M542.227 229.88L523.43 248.665M560.437 169.808L542.227 188.007M542.227 188.007L531.752 198.475M542.227 188.007L523.43 169.223M542.227 188.007L552.702 198.475M531.752 198.475L512.955 179.691M531.752 198.475L542.227 208.944M542.227 208.944L552.702 219.412M542.227 208.944L552.702 198.475M552.702 219.412L570.912 237.611M552.702 219.412L563.177 208.944M570.912 180.276L552.702 198.475M552.702 198.475L563.177 208.944M563.177 208.944L581.387 227.143M563.177 208.944L581.387 190.745" stroke="#9D8873" stroke-width="1.76112"/>
<rect x="587.2" y="163.607" width="90.6" height="90.6" stroke="#9D8873" stroke-width="1.33628"/>
<path d="M632.5 169.424L671.985 208.909L632.5 248.394L593.015 208.909L632.5 169.424Z" stroke="#9D8873" stroke-width="1.76112"/>
<path d="M632.5 182.586L658.823 208.909L632.5 235.232L606.177 208.909L632.5 182.586Z" stroke="#9D8873" stroke-width="1.76112"/>
<path d="M632.5 195.747L645.662 208.909L632.5 222.071L619.338 208.909L632.5 195.747Z" stroke="#9D8873" stroke-width="1.76112"/>
<rect x="677.8" y="163.607" width="90.6" height="90.6" stroke="#9D8873" stroke-width="1.33628"/>
<path d="M737.604 194.469H761.05L746.576 208.944L761.044 223.411H737.604V246.858L723.13 232.383L708.662 246.851V223.411H685.222L699.69 208.944L685.216 194.469H708.662V171.03L723.13 185.497L737.604 171.023V194.469Z" stroke="#9D8873" stroke-width="1.76112"/>
<rect x="496.6" y="254.207" width="90.6" height="90.6" stroke="#9D8873" stroke-width="1.33628"/>
<path d="M502.48 280.755L521.277 299.539M521.277 299.539L531.752 310.008M521.277 299.539L531.752 289.071M521.277 299.539L502.48 318.324M531.752 310.008L542.227 320.476M531.752 310.008L542.227 299.539M531.752 310.008L512.955 328.792M542.227 320.476L560.437 338.675M542.227 320.476L552.702 310.008M542.227 320.476L523.43 339.26M560.437 260.404L542.227 278.603M542.227 278.603L531.752 289.071M542.227 278.603L523.43 259.818M542.227 278.603L552.702 289.071M531.752 289.071L512.955 270.287M531.752 289.071L542.227 299.539M542.227 299.539L552.702 310.008M542.227 299.539L552.702 289.071M552.702 310.008L570.912 328.207M552.702 310.008L563.177 299.539M570.912 270.872L552.702 289.071M552.702 289.071L563.177 299.539M563.177 299.539L581.387 317.738M563.177 299.539L581.387 281.34" stroke="#9D8873" stroke-width="1.76112"/>
<rect x="587.2" y="254.207" width="90.6" height="90.6" stroke="#9D8873" stroke-width="1.33628"/>
<path d="M647.004 285.067H670.45L655.976 299.541L670.444 314.009H647.004V337.455L632.53 322.981L618.062 337.449V314.009H594.622L609.09 299.541L594.616 285.067H618.062V261.627L632.53 276.095L647.004 261.621V285.067Z" stroke="#9D8873" stroke-width="1.76112"/>
<rect x="677.8" y="254.207" width="90.6" height="90.6" stroke="#9D8873" stroke-width="1.33628"/>
<path d="M723.1 260.016L762.585 299.501L723.1 338.986L683.615 299.501L723.1 260.016Z" stroke="#9D8873" stroke-width="1.76112"/>
<path d="M723.1 273.177L749.423 299.501L723.1 325.824L696.777 299.501L723.1 273.177Z" stroke="#9D8873" stroke-width="1.76112"/>
<path d="M723.1 286.339L736.262 299.501L723.1 312.662L709.938 299.501L723.1 286.339Z" stroke="#9D8873" stroke-width="1.76112"/>
<rect x="496.6" y="344.807" width="90.6" height="90.6" stroke="#9D8873" stroke-width="1.33628"/>
<path d="M556.404 375.671H579.85L565.376 390.145L579.844 404.613H556.404V428.059L541.93 413.585L527.462 428.053V404.613H504.022L518.49 390.145L504.016 375.671H527.462V352.231L541.93 366.699L556.404 352.225V375.671Z" stroke="#9D8873" stroke-width="1.76112"/>
<rect x="587.2" y="344.807" width="90.6" height="90.6" stroke="#9D8873" stroke-width="1.33628"/>
<path d="M632.5 350.619L671.985 390.104L632.5 429.589L593.015 390.104L632.5 350.619Z" stroke="#9D8873" stroke-width="1.76112"/>
<path d="M632.5 363.781L658.823 390.104L632.5 416.428L606.177 390.104L632.5 363.781Z" stroke="#9D8873" stroke-width="1.76112"/>
<path d="M632.5 376.943L645.662 390.104L632.5 403.266L619.338 390.104L632.5 376.943Z" stroke="#9D8873" stroke-width="1.76112"/>
<rect x="677.8" y="344.807" width="90.6" height="90.6" stroke="#9D8873" stroke-width="1.33628"/>
<path d="M683.679 371.355L702.476 390.139M702.476 390.139L712.951 400.607M702.476 390.139L712.951 379.671M702.476 390.139L683.679 408.923M712.951 400.607L723.426 411.076M712.951 400.607L723.426 390.139M712.951 400.607L694.154 419.392M723.426 411.076L741.637 429.275M723.426 411.076L733.901 400.607M723.426 411.076L704.629 429.86M741.637 351.003L723.426 369.202M723.426 369.202L712.951 379.671M723.426 369.202L704.629 350.418M723.426 369.202L733.901 379.671M712.951 379.671L694.154 360.886M712.951 379.671L723.426 390.139M723.426 390.139L733.901 400.607M723.426 390.139L733.901 379.671M733.901 400.607L752.112 418.806M733.901 400.607L744.376 390.139M752.112 361.472L733.901 379.671M733.901 379.671L744.376 390.139M744.376 390.139L762.587 408.338M744.376 390.139L762.587 371.94" stroke="#9D8873" stroke-width="1.76112"/>
<rect x="768.4" y="-17.5938" width="90.6" height="90.6" stroke="#9D8873" stroke-width="1.33628"/>
<path d="M813.7 -11.7812L853.185 27.7038L813.7 67.1889L774.215 27.7038L813.7 -11.7812Z" stroke="#9D8873" stroke-width="1.76112"/>
<path d="M813.7 1.38044L840.024 27.7038L813.7 54.0272L787.377 27.7038L813.7 1.38044Z" stroke="#9D8873" stroke-width="1.76112"/>
<path d="M813.7 14.5421L826.862 27.7038L813.7 40.8655L800.539 27.7038L813.7 14.5421Z" stroke="#9D8873" stroke-width="1.76112"/>
<rect x="859" y="-17.5938" width="90.6" height="90.6" stroke="#9D8873" stroke-width="1.33628"/>
<path d="M918.804 13.2683H942.25L927.776 27.7423L942.244 42.2102H918.804V65.6563L904.33 51.1823L889.862 65.6502V42.2102H866.422L880.89 27.7423L866.416 13.2683H889.862V-10.1716L904.33 4.2963L918.804 -10.1777V13.2683Z" stroke="#9D8873" stroke-width="1.76112"/>
<rect x="949.6" y="-17.5938" width="90.6" height="90.6" stroke="#9D8873" stroke-width="1.33628"/>
<path d="M955.479 8.95614L974.276 27.7405M974.276 27.7405L984.751 38.2089M974.276 27.7405L984.751 17.2722M974.276 27.7405L955.479 46.5249M984.751 38.2089L995.226 48.6771M984.751 38.2089L995.226 27.7405M984.751 38.2089L965.955 56.9932M995.226 48.6771L1013.44 66.8762M995.226 48.6771L1005.7 38.2089M995.226 48.6771L976.43 67.4616M1013.44 -11.3951L995.226 6.80393M995.226 6.80393L984.751 17.2722M995.226 6.80393L976.43 -11.9805M995.226 6.80393L1005.7 17.2722M984.751 17.2722L965.955 -1.51217M984.751 17.2722L995.226 27.7405M995.226 27.7405L1005.7 38.2089M995.226 27.7405L1005.7 17.2722M1005.7 38.2089L1023.91 56.4079M1005.7 38.2089L1016.18 27.7405M1023.91 -0.926767L1005.7 17.2722M1005.7 17.2722L1016.18 27.7405M1016.18 27.7405L1034.39 45.9396M1016.18 27.7405L1034.39 9.54154" stroke="#9D8873" stroke-width="1.76112"/>
<rect x="768.4" y="73.0059" width="90.6" height="90.6" stroke="#9D8873" stroke-width="1.33628"/>
<path d="M774.279 99.5557L793.076 118.34M793.076 118.34L803.551 128.808M793.076 118.34L803.551 107.872M793.076 118.34L774.279 137.125M803.551 128.808L814.026 139.277M803.551 128.808L814.026 118.34M803.551 128.808L784.754 147.593M814.026 139.277L832.237 157.476M814.026 139.277L824.501 128.808M814.026 139.277L795.229 158.061M832.237 79.2045L814.026 97.4035M814.026 97.4035L803.551 107.872M814.026 97.4035L795.229 78.6191M814.026 97.4035L824.501 107.872M803.551 107.872L784.754 89.0874M803.551 107.872L814.026 118.34M814.026 118.34L824.501 128.808M814.026 118.34L824.501 107.872M824.501 128.808L842.712 147.007M824.501 128.808L834.976 118.34M842.712 89.6728L824.501 107.872M824.501 107.872L834.976 118.34M834.976 118.34L853.187 136.539M834.976 118.34L853.187 100.141" stroke="#9D8873" stroke-width="1.76112"/>
<rect x="859" y="73.0059" width="90.6" height="90.6" stroke="#9D8873" stroke-width="1.33628"/>
<path d="M904.3 78.8184L943.785 118.303L904.3 157.789L864.815 118.303L904.3 78.8184Z" stroke="#9D8873" stroke-width="1.76112"/>
<path d="M904.3 91.9801L930.624 118.303L904.3 144.627L877.977 118.303L904.3 91.9801Z" stroke="#9D8873" stroke-width="1.76112"/>
<path d="M904.3 105.142L917.462 118.303L904.3 131.465L891.139 118.303L904.3 105.142Z" stroke="#9D8873" stroke-width="1.76112"/>
<rect x="949.6" y="73.0059" width="90.6" height="90.6" stroke="#9D8873" stroke-width="1.33628"/>
<path d="M1009.4 103.872H1032.85L1018.38 118.346L1032.84 132.814H1009.4V156.26L994.93 141.786L980.462 156.254V132.814H957.022L971.49 118.346L957.016 103.872H980.462V80.4319L994.93 94.8998L1009.4 80.4258V103.872Z" stroke="#9D8873" stroke-width="1.76112"/>
<rect x="768.4" y="163.607" width="90.6" height="90.6" stroke="#9D8873" stroke-width="1.33628"/>
<path d="M813.7 169.424L853.185 208.909L813.7 248.394L774.215 208.909L813.7 169.424Z" stroke="#9D8873" stroke-width="1.76112"/>
<path d="M813.7 182.586L840.024 208.909L813.7 235.232L787.377 208.909L813.7 182.586Z" stroke="#9D8873" stroke-width="1.76112"/>
<path d="M813.7 195.747L826.862 208.909L813.7 222.071L800.539 208.909L813.7 195.747Z" stroke="#9D8873" stroke-width="1.76112"/>
<rect x="859" y="163.607" width="90.6" height="90.6" stroke="#9D8873" stroke-width="1.33628"/>
<path d="M864.88 190.159L883.676 208.944M883.676 208.944L894.151 219.412M883.676 208.944L894.151 198.475M883.676 208.944L864.88 227.728M894.151 219.412L904.627 229.88M894.151 219.412L904.627 208.944M894.151 219.412L875.355 238.196M904.627 229.88L922.837 248.079M904.627 229.88L915.102 219.412M904.627 229.88L885.83 248.665M922.837 169.808L904.627 188.007M904.627 188.007L894.151 198.475M904.627 188.007L885.83 169.223M904.627 188.007L915.102 198.475M894.151 198.475L875.355 179.691M894.151 198.475L904.627 208.944M904.627 208.944L915.102 219.412M904.627 208.944L915.102 198.475M915.102 219.412L933.312 237.611M915.102 219.412L925.577 208.944M933.312 180.276L915.102 198.475M915.102 198.475L925.577 208.944M925.577 208.944L943.787 227.143M925.577 208.944L943.787 190.745" stroke="#9D8873" stroke-width="1.76112"/>
<rect x="949.6" y="163.607" width="90.6" height="90.6" stroke="#9D8873" stroke-width="1.33628"/>
<path d="M1009.4 194.469H1032.85L1018.38 208.944L1032.84 223.411H1009.4V246.858L994.93 232.383L980.462 246.851V223.411H957.022L971.49 208.944L957.016 194.469H980.462V171.03L994.93 185.497L1009.4 171.023V194.469Z" stroke="#9D8873" stroke-width="1.76112"/>
<rect x="768.4" y="254.207" width="90.6" height="90.6" stroke="#9D8873" stroke-width="1.33628"/>
<path d="M828.204 285.067H851.65L837.176 299.541L851.644 314.009H828.204V337.455L813.73 322.981L799.262 337.449V314.009H775.823L790.29 299.541L775.816 285.067H799.262V261.627L813.73 276.095L828.204 261.621V285.067Z" stroke="#9D8873" stroke-width="1.76112"/>
<rect x="859" y="254.207" width="90.6" height="90.6" stroke="#9D8873" stroke-width="1.33628"/>
<path d="M864.88 280.755L883.676 299.539M883.676 299.539L894.151 310.008M883.676 299.539L894.151 289.071M883.676 299.539L864.88 318.324M894.151 310.008L904.627 320.476M894.151 310.008L904.627 299.539M894.151 310.008L875.355 328.792M904.627 320.476L922.837 338.675M904.627 320.476L915.102 310.008M904.627 320.476L885.83 339.26M922.837 260.404L904.627 278.603M904.627 278.603L894.151 289.071M904.627 278.603L885.83 259.818M904.627 278.603L915.102 289.071M894.151 289.071L875.355 270.287M894.151 289.071L904.627 299.539M904.627 299.539L915.102 310.008M904.627 299.539L915.102 289.071M915.102 310.008L933.312 328.207M915.102 310.008L925.577 299.539M933.312 270.872L915.102 289.071M915.102 289.071L925.577 299.539M925.577 299.539L943.787 317.738M925.577 299.539L943.787 281.34" stroke="#9D8873" stroke-width="1.76112"/>
<rect x="949.6" y="254.207" width="90.6" height="90.6" stroke="#9D8873" stroke-width="1.33628"/>
<path d="M994.9 260.016L1034.38 299.501L994.9 338.986L955.415 299.501L994.9 260.016Z" stroke="#9D8873" stroke-width="1.76112"/>
<path d="M994.9 273.177L1021.22 299.501L994.9 325.824L968.577 299.501L994.9 273.177Z" stroke="#9D8873" stroke-width="1.76112"/>
<path d="M994.9 286.339L1008.06 299.501L994.9 312.662L981.738 299.501L994.9 286.339Z" stroke="#9D8873" stroke-width="1.76112"/>
<rect x="768.4" y="344.807" width="90.6" height="90.6" stroke="#9D8873" stroke-width="1.33628"/>
<path d="M828.204 375.671H851.65L837.176 390.145L851.644 404.613H828.204V428.059L813.73 413.585L799.262 428.053V404.613H775.823L790.29 390.145L775.816 375.671H799.262V352.231L813.73 366.699L828.204 352.225V375.671Z" stroke="#9D8873" stroke-width="1.76112"/>
<rect x="859" y="344.807" width="90.6" height="90.6" stroke="#9D8873" stroke-width="1.33628"/>
<path d="M904.3 350.619L943.785 390.104L904.3 429.589L864.815 390.104L904.3 350.619Z" stroke="#9D8873" stroke-width="1.76112"/>
<path d="M904.3 363.781L930.624 390.104L904.3 416.428L877.977 390.104L904.3 363.781Z" stroke="#9D8873" stroke-width="1.76112"/>
<path d="M904.3 376.943L917.462 390.104L904.3 403.266L891.139 390.104L904.3 376.943Z" stroke="#9D8873" stroke-width="1.76112"/>
<rect x="949.6" y="344.807" width="90.6" height="90.6" stroke="#9D8873" stroke-width="1.33628"/>
<path d="M955.479 371.355L974.276 390.139M974.276 390.139L984.751 400.607M974.276 390.139L984.751 379.671M974.276 390.139L955.479 408.923M984.751 400.607L995.226 411.076M984.751 400.607L995.226 390.139M984.751 400.607L965.955 419.392M995.226 411.076L1013.44 429.275M995.226 411.076L1005.7 400.607M995.226 411.076L976.43 429.86M1013.44 351.003L995.226 369.202M995.226 369.202L984.751 379.671M995.226 369.202L976.43 350.418M995.226 369.202L1005.7 379.671M984.751 379.671L965.955 360.886M984.751 379.671L995.226 390.139M995.226 390.139L1005.7 400.607M995.226 390.139L1005.7 379.671M1005.7 400.607L1023.91 418.806M1005.7 400.607L1016.18 390.139M1023.91 361.472L1005.7 379.671M1005.7 379.671L1016.18 390.139M1016.18 390.139L1034.39 408.338M1016.18 390.139L1034.39 371.94" stroke="#9D8873" stroke-width="1.76112"/>
<rect x="-47" y="435.406" width="90.6" height="90.6" stroke="#9D8873" stroke-width="1.33628"/>
<path d="M12.804 466.266H36.2501L21.776 480.74L36.244 495.208H12.804V518.654L-1.67001 504.18L-16.1379 518.648V495.208H-39.5779L-25.1099 480.74L-39.584 466.266H-16.1379V442.826L-1.67001 457.294L12.804 442.82V466.266Z" stroke="#9D8873" stroke-width="1.76112"/>
<rect x="43.6001" y="435.406" width="90.6" height="90.6" stroke="#9D8873" stroke-width="1.33628"/>
<path d="M49.48 461.954L68.2765 480.739M68.2765 480.739L78.7516 491.207M68.2765 480.739L78.7516 470.27M68.2765 480.739L49.48 499.523M78.7516 491.207L89.2266 501.675M78.7516 491.207L89.2266 480.739M78.7516 491.207L59.955 509.991M89.2266 501.675L107.437 519.874M89.2266 501.675L99.7017 491.207M89.2266 501.675L70.4301 520.46M107.437 441.603L89.2266 459.802M89.2266 459.802L78.7516 470.27M89.2266 459.802L70.4301 441.018M89.2266 459.802L99.7017 470.27M78.7516 470.27L59.955 451.486M78.7516 470.27L89.2266 480.739M89.2266 480.739L99.7017 491.207M89.2266 480.739L99.7017 470.27M99.7017 491.207L117.912 509.406M99.7017 491.207L110.177 480.739M117.912 452.071L99.7017 470.27M99.7017 470.27L110.177 480.739M110.177 480.739L128.387 498.938M110.177 480.739L128.387 462.54" stroke="#9D8873" stroke-width="1.76112"/>
<rect x="134.2" y="435.406" width="90.6" height="90.6" stroke="#9D8873" stroke-width="1.33628"/>
<path d="M179.5 441.219L218.986 480.704L179.5 520.189L140.015 480.704L179.5 441.219Z" stroke="#9D8873" stroke-width="1.76112"/>
<path d="M179.5 454.38L205.824 480.704L179.5 507.027L153.177 480.704L179.5 454.38Z" stroke="#9D8873" stroke-width="1.76112"/>
<path d="M179.5 467.542L192.662 480.704L179.5 493.866L166.339 480.704L179.5 467.542Z" stroke="#9D8873" stroke-width="1.76112"/>
<rect x="224.8" y="435.406" width="90.6" height="90.6" stroke="#9D8873" stroke-width="1.33628"/>
<path d="M230.68 461.954L249.476 480.739M249.476 480.739L259.951 491.207M249.476 480.739L259.951 470.27M249.476 480.739L230.68 499.523M259.951 491.207L270.426 501.675M259.951 491.207L270.426 480.739M259.951 491.207L241.155 509.991M270.426 501.675L288.637 519.874M270.426 501.675L280.901 491.207M270.426 501.675L251.63 520.46M288.637 441.603L270.426 459.802M270.426 459.802L259.951 470.27M270.426 459.802L251.63 441.018M270.426 459.802L280.901 470.27M259.951 470.27L241.155 451.486M259.951 470.27L270.426 480.739M270.426 480.739L280.901 491.207M270.426 480.739L280.901 470.27M280.901 491.207L299.112 509.406M280.901 491.207L291.376 480.739M299.112 452.071L280.901 470.27M280.901 470.27L291.376 480.739M291.376 480.739L309.587 498.938M291.376 480.739L309.587 462.54" stroke="#9D8873" stroke-width="1.76112"/>
<rect x="315.4" y="435.406" width="90.6" height="90.6" stroke="#9D8873" stroke-width="1.33628"/>
<path d="M360.7 441.219L400.185 480.704L360.7 520.189L321.215 480.704L360.7 441.219Z" stroke="#9D8873" stroke-width="1.76112"/>
<path d="M360.7 454.38L387.024 480.704L360.7 507.027L334.377 480.704L360.7 454.38Z" stroke="#9D8873" stroke-width="1.76112"/>
<path d="M360.7 467.542L373.862 480.704L360.7 493.866L347.539 480.704L360.7 467.542Z" stroke="#9D8873" stroke-width="1.76112"/>
<rect x="406" y="435.406" width="90.6" height="90.6" stroke="#9D8873" stroke-width="1.33628"/>
<path d="M465.805 466.266H489.251L474.777 480.74L489.244 495.208H465.805V518.654L451.33 504.18L436.863 518.648V495.208H413.423L427.891 480.74L413.417 466.266H436.863V442.826L451.33 457.294L465.805 442.82V466.266Z" stroke="#9D8873" stroke-width="1.76112"/>
<rect x="496.6" y="435.406" width="90.6" height="90.6" stroke="#9D8873" stroke-width="1.33628"/>
<path d="M541.9 441.219L581.385 480.704L541.9 520.189L502.415 480.704L541.9 441.219Z" stroke="#9D8873" stroke-width="1.76112"/>
<path d="M541.9 454.38L568.224 480.704L541.9 507.027L515.577 480.704L541.9 454.38Z" stroke="#9D8873" stroke-width="1.76112"/>
<path d="M541.9 467.542L555.062 480.704L541.9 493.866L528.739 480.704L541.9 467.542Z" stroke="#9D8873" stroke-width="1.76112"/>
<rect x="587.2" y="435.406" width="90.6" height="90.6" stroke="#9D8873" stroke-width="1.33628"/>
<path d="M647.004 466.266H670.45L655.976 480.74L670.444 495.208H647.004V518.654L632.53 504.18L618.062 518.648V495.208H594.622L609.09 480.74L594.616 466.266H618.062V442.826L632.53 457.294L647.004 442.82V466.266Z" stroke="#9D8873" stroke-width="1.76112"/>
<rect x="677.8" y="435.406" width="90.6" height="90.6" stroke="#9D8873" stroke-width="1.33628"/>
<path d="M683.68 461.954L702.477 480.739M702.477 480.739L712.952 491.207M702.477 480.739L712.952 470.27M702.477 480.739L683.68 499.523M712.952 491.207L723.427 501.675M712.952 491.207L723.427 480.739M712.952 491.207L694.155 509.991M723.427 501.675L741.638 519.874M723.427 501.675L733.902 491.207M723.427 501.675L704.63 520.46M741.638 441.603L723.427 459.802M723.427 459.802L712.952 470.27M723.427 459.802L704.63 441.018M723.427 459.802L733.902 470.27M712.952 470.27L694.155 451.486M712.952 470.27L723.427 480.739M723.427 480.739L733.902 491.207M723.427 480.739L733.902 470.27M733.902 491.207L752.113 509.406M733.902 491.207L744.377 480.739M752.113 452.071L733.902 470.27M733.902 470.27L744.377 480.739M744.377 480.739L762.588 498.938M744.377 480.739L762.588 462.54" stroke="#9D8873" stroke-width="1.76112"/>
<rect x="768.4" y="435.406" width="90.6" height="90.6" stroke="#9D8873" stroke-width="1.33628"/>
<path d="M774.279 461.954L793.076 480.739M793.076 480.739L803.551 491.207M793.076 480.739L803.551 470.27M793.076 480.739L774.279 499.523M803.551 491.207L814.026 501.675M803.551 491.207L814.026 480.739M803.551 491.207L784.754 509.991M814.026 501.675L832.237 519.874M814.026 501.675L824.501 491.207M814.026 501.675L795.229 520.46M832.237 441.603L814.026 459.802M814.026 459.802L803.551 470.27M814.026 459.802L795.229 441.018M814.026 459.802L824.501 470.27M803.551 470.27L784.754 451.486M803.551 470.27L814.026 480.739M814.026 480.739L824.501 491.207M814.026 480.739L824.501 470.27M824.501 491.207L842.712 509.406M824.501 491.207L834.976 480.739M842.712 452.071L824.501 470.27M824.501 470.27L834.976 480.739M834.976 480.739L853.187 498.938M834.976 480.739L853.187 462.54" stroke="#9D8873" stroke-width="1.76112"/>
<rect x="859" y="435.406" width="90.6" height="90.6" stroke="#9D8873" stroke-width="1.33628"/>
<path d="M918.804 466.266H942.25L927.776 480.74L942.244 495.208H918.804V518.654L904.33 504.18L889.862 518.648V495.208H866.422L880.89 480.74L866.416 466.266H889.862V442.826L904.33 457.294L918.804 442.82V466.266Z" stroke="#9D8873" stroke-width="1.76112"/>
<rect x="949.6" y="435.406" width="90.6" height="90.6" stroke="#9D8873" stroke-width="1.33628"/>
<path d="M994.9 441.219L1034.38 480.704L994.9 520.189L955.415 480.704L994.9 441.219Z" stroke="#9D8873" stroke-width="1.76112"/>
<path d="M994.9 454.38L1021.22 480.704L994.9 507.027L968.577 480.704L994.9 454.38Z" stroke="#9D8873" stroke-width="1.76112"/>
<path d="M994.9 467.542L1008.06 480.704L994.9 493.866L981.738 480.704L994.9 467.542Z" stroke="#9D8873" stroke-width="1.76112"/>
<rect x="1040.2" y="435.406" width="90.6" height="90.6" stroke="#9D8873" stroke-width="1.33628"/>
<path d="M1085.5 441.219L1124.99 480.704L1085.5 520.189L1046.01 480.704L1085.5 441.219Z" stroke="#9D8873" stroke-width="1.76112"/>
<path d="M1085.5 454.38L1111.82 480.704L1085.5 507.027L1059.18 480.704L1085.5 454.38Z" stroke="#9D8873" stroke-width="1.76112"/>
<path d="M1085.5 467.542L1098.66 480.704L1085.5 493.866L1072.34 480.704L1085.5 467.542Z" stroke="#9D8873" stroke-width="1.76112"/>
<rect x="1040.2" y="-17.5938" width="90.6" height="90.6" stroke="#9D8873" stroke-width="1.33628"/>
<path d="M1085.5 -11.7812L1124.99 27.7038L1085.5 67.1889L1046.01 27.7038L1085.5 -11.7812Z" stroke="#9D8873" stroke-width="1.76112"/>
<path d="M1085.5 1.38044L1111.82 27.7038L1085.5 54.0272L1059.18 27.7038L1085.5 1.38044Z" stroke="#9D8873" stroke-width="1.76112"/>
<path d="M1085.5 14.5421L1098.66 27.7038L1085.5 40.8655L1072.34 27.7038L1085.5 14.5421Z" stroke="#9D8873" stroke-width="1.76112"/>
<rect x="1040.2" y="73.0059" width="90.6" height="90.6" stroke="#9D8873" stroke-width="1.33628"/>
<path d="M1046.08 99.5557L1064.88 118.34M1064.88 118.34L1075.35 128.808M1064.88 118.34L1075.35 107.872M1064.88 118.34L1046.08 137.125M1075.35 128.808L1085.83 139.277M1075.35 128.808L1085.83 118.34M1075.35 128.808L1056.55 147.593M1085.83 139.277L1104.04 157.476M1085.83 139.277L1096.3 128.808M1085.83 139.277L1067.03 158.061M1104.04 79.2045L1085.83 97.4035M1085.83 97.4035L1075.35 107.872M1085.83 97.4035L1067.03 78.6191M1085.83 97.4035L1096.3 107.872M1075.35 107.872L1056.55 89.0874M1075.35 107.872L1085.83 118.34M1085.83 118.34L1096.3 128.808M1085.83 118.34L1096.3 107.872M1096.3 128.808L1114.51 147.007M1096.3 128.808L1106.78 118.34M1114.51 89.6728L1096.3 107.872M1096.3 107.872L1106.78 118.34M1106.78 118.34L1124.99 136.539M1106.78 118.34L1124.99 100.141" stroke="#9D8873" stroke-width="1.76112"/>
<rect x="1040.2" y="163.607" width="90.6" height="90.6" stroke="#9D8873" stroke-width="1.33628"/>
<path d="M1085.5 169.424L1124.99 208.909L1085.5 248.394L1046.01 208.909L1085.5 169.424Z" stroke="#9D8873" stroke-width="1.76112"/>
<path d="M1085.5 182.586L1111.82 208.909L1085.5 235.232L1059.18 208.909L1085.5 182.586Z" stroke="#9D8873" stroke-width="1.76112"/>
<path d="M1085.5 195.747L1098.66 208.909L1085.5 222.071L1072.34 208.909L1085.5 195.747Z" stroke="#9D8873" stroke-width="1.76112"/>
<rect x="1040.2" y="254.207" width="90.6" height="90.6" stroke="#9D8873" stroke-width="1.33628"/>
<path d="M1100 285.067H1123.45L1108.98 299.541L1123.44 314.009H1100V337.455L1085.53 322.981L1071.06 337.449V314.009H1047.62L1062.09 299.541L1047.62 285.067H1071.06V261.627L1085.53 276.095L1100 261.621V285.067Z" stroke="#9D8873" stroke-width="1.76112"/>
<rect x="1040.2" y="344.807" width="90.6" height="90.6" stroke="#9D8873" stroke-width="1.33628"/>
<path d="M1100 375.671H1123.45L1108.98 390.145L1123.44 404.613H1100V428.059L1085.53 413.585L1071.06 428.053V404.613H1047.62L1062.09 390.145L1047.62 375.671H1071.06V352.231L1085.53 366.699L1100 352.225V375.671Z" stroke="#9D8873" stroke-width="1.76112"/>
</svg>
