<svg width="40" height="40" viewBox="0 0 40 40" fill="none" xmlns="http://www.w3.org/2000/svg">
<path d="M30 2H10C7.87827 2 5.84344 2.84285 4.34315 4.34315C2.84285 5.84344 2 7.87827 2 10V30C2 32.1217 2.84285 34.1566 4.34315 35.6569C5.84344 37.1571 7.87827 38 10 38H30C32.1217 38 34.1566 37.1571 35.6569 35.6569C37.1571 34.1566 38 32.1217 38 30V10C38 7.87827 37.1571 5.84344 35.6569 4.34315C34.1566 2.84285 32.1217 2 30 2Z" stroke="#FFF9F0" stroke-width="4" stroke-linejoin="round"/>
<path d="M20 28C22.1217 28 24.1566 27.1571 25.6569 25.6569C27.1571 24.1566 28 22.1217 28 20C28 17.8783 27.1571 15.8434 25.6569 14.3431C24.1566 12.8429 22.1217 12 20 12C17.8783 12 15.8434 12.8429 14.3431 14.3431C12.8429 15.8434 12 17.8783 12 20C12 22.1217 12.8429 24.1566 14.3431 25.6569C15.8434 27.1571 17.8783 28 20 28Z" stroke="#FFF9F0" stroke-width="4" stroke-linejoin="round"/>
<path d="M31 11C31.5304 11 32.0391 10.7893 32.4142 10.4142C32.7893 10.0391 33 9.53043 33 9C33 8.46957 32.7893 7.96086 32.4142 7.58579C32.0391 7.21071 31.5304 7 31 7C30.4696 7 29.9609 7.21071 29.5858 7.58579C29.2107 7.96086 29 8.46957 29 9C29 9.53043 29.2107 10.0391 29.5858 10.4142C29.9609 10.7893 30.4696 11 31 11Z" fill="#FFF9F0"/>
</svg>
