<svg width="40" height="40" viewBox="0 0 40 40" fill="none" xmlns="http://www.w3.org/2000/svg">
<path d="M30 22.261V29.655H25.714V22.755C25.714 21.023 25.094 19.841 23.542 19.841C22.358 19.841 21.652 20.637 21.342 21.409C21.23 21.685 21.2 22.069 21.2 22.453V29.655H16.912C16.912 29.655 16.97 17.971 16.912 16.761H21.2V18.587L21.172 18.629H21.2V18.587C21.77 17.707 22.786 16.457 25.064 16.457C27.884 16.457 30 18.301 30 22.261ZM12.426 10.543C10.96 10.543 10 11.507 10 12.771C10 14.011 10.932 15.001 12.37 15.001H12.398C13.894 15.001 14.824 14.009 14.824 12.771C14.796 11.507 13.894 10.543 12.426 10.543ZM10.254 29.655H14.542V16.761H10.254V29.655Z" fill="#FFF9F0"/>
<path d="M8 4C6.93913 4 5.92172 4.42143 5.17157 5.17157C4.42143 5.92172 4 6.93913 4 8V32C4 33.0609 4.42143 34.0783 5.17157 34.8284C5.92172 35.5786 6.93913 36 8 36H32C33.0609 36 34.0783 35.5786 34.8284 34.8284C35.5786 34.0783 36 33.0609 36 32V8C36 6.93913 35.5786 5.92172 34.8284 5.17157C34.0783 4.42143 33.0609 4 32 4H8ZM8 0H32C34.1217 0 36.1566 0.842855 37.6569 2.34315C39.1571 3.84344 40 5.87827 40 8V32C40 34.1217 39.1571 36.1566 37.6569 37.6569C36.1566 39.1571 34.1217 40 32 40H8C5.87827 40 3.84344 39.1571 2.34315 37.6569C0.842855 36.1566 0 34.1217 0 32V8C0 5.87827 0.842855 3.84344 2.34315 2.34315C3.84344 0.842855 5.87827 0 8 0Z" fill="#FFF9F0"/>
</svg>
