<svg width="40" height="40" viewBox="0 0 40 40" fill="none" xmlns="http://www.w3.org/2000/svg">
<path fill-rule="evenodd" clip-rule="evenodd" d="M7.27273 0C5.34388 0 3.49403 0.766232 2.13013 2.13013C0.766232 3.49403 0 5.34388 0 7.27273V32.7273C0 34.6561 0.766232 36.506 2.13013 37.8699C3.49403 39.2338 5.34388 40 7.27273 40H32.7273C34.6561 40 36.506 39.2338 37.8699 37.8699C39.2338 36.506 40 34.6561 40 32.7273V7.27273C40 5.34388 39.2338 3.49403 37.8699 2.13013C36.506 0.766232 34.6561 0 32.7273 0H7.27273ZM6.66545 6.36364C6.46642 6.4376 6.28741 6.55703 6.14268 6.7124C5.99795 6.86777 5.89151 7.05479 5.83182 7.25856C5.77214 7.46233 5.76087 7.67723 5.7989 7.88613C5.83694 8.09503 5.92323 8.29216 6.05091 8.46182L16.2582 22.0073L5.50364 33.5436L5.42364 33.6364H9.14546L17.9273 24.22L24.6764 33.18C24.8329 33.3874 25.0455 33.5457 25.2891 33.6364H33.3291C33.5278 33.562 33.7065 33.4423 33.8508 33.2868C33.9951 33.1312 34.1012 32.9441 34.1605 32.7404C34.2198 32.5367 34.2308 32.3219 34.1925 32.1132C34.1542 31.9045 34.0678 31.7076 33.94 31.5382L23.7327 17.9927L34.5764 6.36364H30.8491L22.0673 15.7818L15.3145 6.82182C15.1582 6.61375 14.9456 6.45476 14.7018 6.36364H6.66545ZM26.4473 30.9964L9.87455 9.00364H13.5455L30.1164 30.9945L26.4473 30.9964Z" fill="#FFF9F0"/>
</svg>
